<?xml version="1.0" encoding="utf-8"?>
<!-- Generator: Adobe Illustrator 18.1.0, SVG Export Plug-In . SVG Version: 6.00 Build 0)  -->
<svg version="1.1" id="Layer_1" xmlns="http://www.w3.org/2000/svg" xmlns:xlink="http://www.w3.org/1999/xlink" x="0px" y="0px"
	 viewBox="0 0 375.1 276.3" enable-background="new 0 0 375.1 276.3" xml:space="preserve">
<path fill="none" stroke="#E9AB22" stroke-linecap="round" stroke-linejoin="round" stroke-miterlimit="10" d="M10,257
	c114.3,2.9,228.7,2.7,343-0.5c-103.3-1.1-206.6-2.2-310-3.3"/>
<g>
	<g>
		<g>
			<path fill="none" stroke="#C49A6C" stroke-linecap="round" stroke-linejoin="round" d="M258.4,197c0.1-0.3-0.7,0.1-0.5-0.2
				c0-0.1,4.7-1.2,4.8-1.3c0.2-0.4-6.3-2.1-6.1-2.5c0.1-0.2,10.3,1.2,10.4,1c0.2-0.6-12-4.2-11.7-4.7c0.2-0.4,15.8,3.6,16,3.2
				c0.3-0.7-17.6-6.3-17.3-7c0.2-0.5,21.4,6,21.6,5.5c0.3-0.9-23.3-8.4-22.9-9.3c0.3-0.7,26.9,8.4,27.2,7.7
				c0.4-1-28.9-10.5-28.5-11.5c0.3-0.8,32.5,10.8,32.8,10c0.5-1.1-34.6-12.7-34.1-13.8c0.4-0.9,38,13.2,38.4,12.3
				c0.5-1.3-40.3-14.8-39.8-16.1c0.4-1.1,43.6,15.6,44,14.5c0.6-1.4-45.9-16.9-45.4-18.3c0.5-1.2,49.1,18,49.6,16.8
				c0.6-1.6-51.6-19-51-20.6c0.5-1.4,54.6,20.4,55.2,19.1c0.7-1.7-57.2-21.2-56.6-22.8c0.6-1.5,60.2,22.8,60.8,21.3
				c0.7-1.8-62.9-23.3-62.2-25.1c0.7-1.6,65.7,25.2,66.4,23.6c0.8-2-68.6-25.4-67.8-27.4c0.7-1.8,71.3,27.6,72,25.9
				c0.9-2.1-74.2-27.5-73.4-29.6c0.8-1.9,76.8,30,77.6,28.1c0.9-2.2-79.7-29.6-78.7-31.8c0.8-2,82.2,32.3,83,30.3
				c0.9-2.2-79.7-29.6-78.8-31.8c0.8-2,82.2,32.3,83,30.3c0.9-2.2-79.7-29.6-78.8-31.8c0.8-2,79.2,31.1,80,29.1
				c0.9-2.2-76.7-28.4-75.8-30.6c0.7-1.8,73.7,28.7,74.4,26.8c0.8-2-71-26.3-70.2-28.4c0.7-1.7,68.1,26.3,68.8,24.6
				c0.8-1.9-65.3-24.2-64.6-26.1c0.6-1.6,62.6,23.9,63.2,22.3c0.7-1.8-59.7-22.1-59-23.8c0.6-1.4,57,21.5,57.6,20
				c0.7-1.6-54-20-53.4-21.6c0.5-1.3,51.5,19.1,52,17.8c0.6-1.5-48.4-17.8-47.8-19.3c0.5-1.1,46,16.7,46.4,15.5
				c0.5-1.3-42.7-15.7-42.2-17c0.4-1,40.4,14.3,40.8,13.3c0.5-1.2-37.1-13.6-36.6-14.8c0.3-0.9,34.9,11.8,35.2,11
				c0.4-1.1-31.4-11.5-31-12.5c0.3-0.7,29.3,9.4,29.6,8.7c0.4-0.9-25.8-9.3-25.4-10.3c0.2-0.6,23.8,7,24,6.5
				c0.3-0.8-20.1-7.2-19.8-8c0.2-0.4,18.2,4.6,18.4,4.2c0.3-0.6-14.4-5.1-14.2-5.7c0.1-0.3,12.7,2.2,12.8,1.9c0.2-0.5-8.8-3-8.6-3.5
				c0.1-0.2,7.2-0.1,7.2-0.3c0.1-0.4-3.1-0.9-3-1.2"/>
		</g>
	</g>
	<g>
		<path fill="none" stroke="#E9AB22" stroke-linecap="round" stroke-linejoin="round" stroke-miterlimit="10" d="M65.4,92.7
			c4.8,0.1,9.3,2.1,12.7,5.5l46.9,46.9c3.5,3.5,5.5,8.3,5.5,13.3c0,5-2,9.7-5.5,13.3c-3.5,3.5-8.3,5.5-13.3,5.5c-5,0-9.7-2-13.3-5.5
			l-33.2-33.2v42.8c0,7.8,6.3,14.2,14.2,14.2h8.4L70.3,213c-6.5,6.5-6.5,17.2,0,23.7c6.5,6.5,17.2,6.5,23.7,0l41.3-41.3h45.1
			c7.8,0,14.2-6.3,14.2-14.2v-41.1h17.5c9.3,0,16.8-7.5,16.8-16.8c0-9.3-7.5-16.8-16.8-16.8h-17.5V78.6c0-7.8-6.3-14.2-14.2-14.2
			h-25.9v-5.5c4.4-1.5,7.6-5.7,7.6-10.6c0-6.2-5-11.3-11.3-11.3c-6.2,0-11.3,5-11.3,11.3v0v16.1h-33.6v-9
			c5.9-2.1,10.1-7.6,10.1-14.2c0-8.3-6.8-15.1-15.1-15.1s-15.1,6.8-15.1,15.1v23.3h-6.3c-7.8,0-14.2,6.3-14.2,14.2L65.4,92.7
			L65.4,92.7z M153,94.7c1-6.7,6.7-11.9,13.7-11.9c7,0,12.7,5.2,13.7,11.9H153z M121.1,113c1.2-1.7,41-4.6,41-4.6l-17.4,21.9
			L121.1,113z M107.9,93.9c0-9.2,7.4-16.6,16.6-16.6c9.2,0,16.6,7.4,16.6,16.6c0,0.3,0,0.5,0,0.8h-33.2
			C107.9,94.4,107.9,94.2,107.9,93.9z"/>
		<path fill="none" stroke="#E9AB22" stroke-linecap="round" stroke-linejoin="round" stroke-miterlimit="10" d="M174.5,197.9
			l15.1,15.1c6.5,6.5,6.5,17.2,0,23.7c-6.5,6.5-17.2,6.5-23.7,0l-34.1-34.1l4.7-4.7H174.5z"/>
		<path fill="none" stroke="#E9AB22" stroke-linecap="round" stroke-linejoin="round" stroke-miterlimit="10" d="M123.7,170.2
			c-6.5,6.5-17.2,6.5-23.7,0l-34.5-34.5V94.7c4.1,0.1,8.2,1.7,11.4,4.9l46.9,46.9C130.3,153,130.3,163.6,123.7,170.2z"/>
	</g>
	<g>
		<path fill="none" stroke="#EFCC86" stroke-linecap="round" stroke-linejoin="round" d="M181,145.6c0.1,0.2,6.6-4.1,6.7-3.9
			c0.4,0.7-20.7,16.4-20.3,17.1c0.4,0.7,26.7-16.2,27-15.6c0.6,1.1-37.4,26.1-36.8,27.1c0.6,1.1,36.2-22.2,36.8-21.2
			c0.8,1.4-47.7,32.1-47,33.3c0.7,1.2,46.4-28.2,47-27.1c1,1.7-58.4,36.9-57.5,38.5c0.7,1.2,56.6-34.8,57.5-33.2
			c0.6,1.1-50.5,33.5-49.7,34.9c0.7,1.2,48.9-30.1,49.7-28.7c0.5,0.9-39.4,27.6-38.8,28.7c0.5,0.9,38.2-23.5,38.8-22.4
			c0.5,0.8-30.1,21.5-29.5,22.4c0.4,0.7,29-17.6,29.4-17c0.4,0.6-20.3,16.4-19.9,17c0.3,0.5,17.9-11,18.2-10.5"/>
	</g>
	
		<circle fill="none" stroke="#BCBEC0" stroke-width="3" stroke-linecap="round" stroke-linejoin="round" stroke-miterlimit="10" cx="263.2" cy="229.6" r="13.7"/>
	
		<line fill="#BCBEC0" stroke="#BCBEC0" stroke-width="3" stroke-linecap="round" stroke-linejoin="round" stroke-miterlimit="10" x1="184.9" y1="123" x2="210.9" y2="123"/>
	
		<line fill="#BCBEC0" stroke="#BCBEC0" stroke-width="3" stroke-linecap="round" stroke-linejoin="round" stroke-miterlimit="10" x1="210.9" y1="123" x2="249.5" y2="213.4"/>
	
		<line fill="#BCBEC0" stroke="#BCBEC0" stroke-width="3" stroke-linecap="round" stroke-linejoin="round" stroke-miterlimit="10" x1="249.5" y1="213.4" x2="332.4" y2="185.3"/>
	
		<rect x="241.8" y="124.2" transform="matrix(0.9411 -0.3381 0.3381 0.9411 -36.2077 105.0968)" fill="none" stroke="#C49A6C" stroke-miterlimit="10" width="83.6" height="64.6"/>
	<polygon fill="none" stroke="#C49A6C" stroke-miterlimit="10" points="332.5,126 325.3,131.3 312.1,111.9 313.7,111.3 	"/>
	<g>
		<g>
			<path fill="none" stroke="#C49A6C" stroke-linecap="round" stroke-linejoin="round" d="M325.1,128.1c0.1-0.1-0.3,0.1-0.2-0.1
				c0-0.1,2.8-2,2.8-2.1c0.1-0.3-5.7-2-5.6-2.2c0-0.1,0.6-2.9,0.7-3c0.1-0.2-3.5-1.1-3.4-1.4"/>
		</g>
	</g>
</g>
</svg>
