<?xml version="1.0" encoding="utf-8"?>
<!-- Generator: Adobe Illustrator 18.1.0, SVG Export Plug-In . SVG Version: 6.00 Build 0)  -->
<svg version="1.1" id="Layer_1" xmlns="http://www.w3.org/2000/svg" xmlns:xlink="http://www.w3.org/1999/xlink" x="0px" y="0px"
	 viewBox="0 0 275 261" enable-background="new 0 0 275 261" xml:space="preserve">
<g>
	<g>
		<g>
			<rect x="24.8" y="99.6" fill="#00AEEF" width="225.3" height="61.9"/>
		</g>
		<g>
			<rect x="106.6" y="17.8" fill="#00AEEF" width="61.9" height="225.3"/>
		</g>
		<g>
			
				<rect x="106.6" y="17.8" transform="matrix(0.7071 0.7071 -0.7071 0.7071 132.5503 -59.0046)" fill="#00AEEF" width="61.9" height="225.3"/>
		</g>
		<g>
			
				<rect x="106.6" y="17.8" transform="matrix(0.7071 -0.7071 0.7071 0.7071 -52.0046 135.4498)" fill="#00AEEF" width="61.9" height="225.3"/>
		</g>
	</g>
	<g>
		<g>
			<rect x="71.2" y="52.5" fill="#FFFFFF" width="128" height="150"/>
		</g>
		<g>
			<g>
				<path fill="#D69B29" d="M118.4,74.6c0-3.8,3-6.8,6.8-6.8c3.8,0,6.8,3,6.8,6.8v14.9h-9.1v-8.5C120.3,80.1,118.4,77.6,118.4,74.6z
					"/>
			</g>
			<g>
				<path fill="#E9AB22" d="M112.9,163.4h49.6c7.8,0,14.2-6.3,14.2-14.2V98.5c0-7.8-6.3-14.2-14.2-14.2h-49.6
					c-7.8,0-14.2,6.3-14.2,14.2v50.6C98.7,157,105.1,163.4,112.9,163.4z"/>
			</g>
			<g>
				<g>
					<circle fill="#E9AB22" cx="154.3" cy="70.3" r="9.1"/>
				</g>
				<g>
					<rect x="151.3" y="70.3" fill="#E9AB22" width="12.1" height="20"/>
				</g>
			</g>
			<g>
				<path fill="#9E7D2D" d="M143,113.7c-0.7-1-24.7-2.8-24.7-2.8l10.5,13.2L143,113.7z"/>
			</g>
			<g>
				<path fill="#E9AB22" d="M149.9,130.9c5.6,0,10.1,4.5,10.1,10.1v40c0,5.6-4.5,10.1-10.1,10.1c-5.6,0-10.1-4.5-10.1-10.1v-40
					C139.8,135.4,144.4,130.9,149.9,130.9z"/>
			</g>
			<g>
				<path fill="#D69B29" d="M89.1,125.3h16v20.2h-16c-5.6,0-10.1-4.5-10.1-10.1C79,129.8,83.5,125.3,89.1,125.3z"/>
			</g>
			<g>
				<path fill="#D69B29" d="M117.8,181.1v-16H138v16c0,5.6-4.5,10.1-10.1,10.1C122.3,191.2,117.8,186.7,117.8,181.1z"/>
			</g>
			<g>
				<path fill="#EFCC86" d="M139.6,163.4h-29.8c-6.1,0-11.1-5-11.1-11.1v-27.1C120.4,125.3,138.1,142.1,139.6,163.4z"/>
			</g>
			<g>
				<path fill="#E9AB22" d="M184.2,106c3.9,3.9,3.9,10.3,0,14.3L156,148.6c-3.9,3.9-10.3,3.9-14.3,0c-3.9-3.9-3.9-10.3,0-14.3
					L170,106C173.9,102.1,180.3,102.1,184.2,106z"/>
				<path fill="#FFFFFF" d="M141,149.3c-2.1-2.1-3.3-4.9-3.3-7.9c0-3,1.2-5.8,3.3-7.9l28.3-28.3c2.1-2.1,4.9-3.3,7.9-3.3
					s5.8,1.2,7.9,3.3s3.3,4.9,3.3,7.9s-1.2,5.8-3.3,7.9l-28.3,28.3c-2.1,2.1-4.9,3.3-7.9,3.3S143.1,151.4,141,149.3z M170.7,106.7
					L142.4,135c-1.7,1.7-2.7,4-2.7,6.4c0,2.4,0.9,4.7,2.7,6.4s4,2.7,6.4,2.7s4.7-0.9,6.4-2.7l28.3-28.3c3.6-3.6,3.6-9.3,0-12.9
					c-1.7-1.7-4-2.7-6.4-2.7S172.4,105,170.7,106.7z"/>
			</g>
			<g>
				<rect x="149.4" y="99.1" fill="#E9AB22" width="27.4" height="25"/>
			</g>
			<g>
				<g>
					<circle fill="#FCDA21" cx="141" cy="102.1" r="10"/>
				</g>
				<g>
					<circle fill="#FCDA21" cx="115.5" cy="103.8" r="8.3"/>
				</g>
				<g>
					<rect x="99.7" y="102.6" fill="#E9AB22" width="52.2" height="10"/>
				</g>
			</g>
			<g>
				<rect x="176.9" y="90" fill="#FFFFFF" width="26.9" height="70.5"/>
			</g>
		</g>
	</g>
	<g>
		<g>
			<path fill="#00AEEF" d="M41.2,130.5c0,53.4,43.2,96.9,96.3,96.9s96.3-43.4,96.3-96.9s-43.2-96.9-96.3-96.9S41.2,77.1,41.2,130.5z
				 M73.9,135.9c0-8.3,6.7-15,15-15h4.5V96.3c0-8.8,7.2-16,16-16h4.4c-0.6-1.4-1-3-1-4.6c0-6.5,5.3-11.7,11.7-11.7
				c6.5,0,11.7,5.3,11.7,11.7v4.6h6.3c-2-2.5-3.2-5.6-3.2-8.9c0-7.7,6.3-14,14-14c7.7,0,14,6.3,14,14v9.2c7,1.3,12.4,7.1,13,14.3
				h0.3v3l0.4,0v32.7l-0.6,0.6v21.4c0,8.8-7.2,16-16,16h-0.4v12.5c0,8.3-6.7,15-15,15c-4.3,0-8.1-1.8-10.9-4.7
				c-2.7,3-6.6,4.8-11,4.8c-8.3,0-15-6.7-15-15v-12.5h-2.9c-8.8,0-16-7.2-16-16v-1.8h-4.5C80.6,150.9,73.9,144.2,73.9,135.9z"/>
		</g>
	</g>
	<g>
		<rect x="68.8" y="44.4" fill="#00AEEF" width="22.2" height="21.7"/>
	</g>
	<g>
		<rect x="186.9" y="47.4" fill="#00AEEF" width="20.9" height="13.9"/>
	</g>
	<g>
		<rect x="58" y="191.2" fill="#00AEEF" width="22" height="16.8"/>
	</g>
</g>
</svg>
