<?xml version="1.0" encoding="utf-8"?>
<!-- Generator: Adobe Illustrator 18.1.0, SVG Export Plug-In . SVG Version: 6.00 Build 0)  -->
<svg version="1.1" id="Layer_1" xmlns="http://www.w3.org/2000/svg" xmlns:xlink="http://www.w3.org/1999/xlink" x="0px" y="0px"
	 viewBox="0 0 275 261" enable-background="new 0 0 275 261" xml:space="preserve">
<g>
	<rect x="149.4" y="102.8" fill="#E5D8A3" width="89" height="120.5"/>
	<polygon fill="#BCB184" points="250.3,131.2 238.5,102.8 238.5,223.3 250.3,191.5 	"/>
	<rect x="159.5" y="168" fill="none" stroke="#BCB184" stroke-miterlimit="10" width="69.5" height="46.1"/>
	<g>
		<path fill="none" stroke="#BCB184" stroke-miterlimit="10" d="M191.8,185.8h4.8c5.5,0,10-3.3,10-7.2v-7.3h-24.8v7.3
			C181.8,182.5,186.3,185.8,191.8,185.8z"/>
		<rect x="181.8" y="171.2" fill="#BCB184" width="24.8" height="7.3"/>
	</g>
</g>
<g>
	<path fill="#D69B29" d="M110.4,64.7c0-5.1-4.1-9.3-9.3-9.3c-5.1,0-9.3,4.1-9.3,9.3V85h12.3V73.4C107.8,72.2,110.4,68.7,110.4,64.7z
		"/>
	<path fill="#E9AB22" d="M122.9,185.6H45.2c-7.8,0-14.2-6.3-14.2-14.2V92.1c0-7.8,6.3-14.2,14.2-14.2h77.8c7.8,0,14.2,6.3,14.2,14.2
		v79.3C137.1,179.2,130.8,185.6,122.9,185.6z"/>
	<g>
		<circle fill="#E9AB22" cx="61.4" cy="58.8" r="12.4"/>
		<rect x="49" y="58.8" fill="#E9AB22" width="16.5" height="27.2"/>
	</g>
	<path fill="#9E7D2D" d="M76.8,117.9c1-1.4,33.7-3.8,33.7-3.8l-14.3,18L76.8,117.9z"/>
	<path fill="#E9AB22" d="M67.4,141.3c-7.6,0-13.8,6.2-13.8,13.8v54.5c0,7.6,6.2,13.8,13.8,13.8c7.6,0,13.8-6.2,13.8-13.8v-54.5
		C81.1,147.5,75,141.3,67.4,141.3z"/>
	<path fill="#D69B29" d="M150.2,133.7h-21.7v27.5h21.7c7.6,0,13.8-6.2,13.8-13.8C164,139.9,157.9,133.7,150.2,133.7z"/>
	<path fill="#D69B29" d="M111.2,209.7V188H83.6v21.7c0,7.6,6.2,13.8,13.8,13.8C105,223.5,111.2,217.3,111.2,209.7z"/>
	<path fill="#EFCC86" d="M81.4,185.6H122c8.3,0,15.1-6.8,15.1-15.1v-36.9C107.6,133.7,83.5,156.6,81.4,185.6z"/>
	<path fill="#E9AB22" stroke="#FFFFFF" stroke-width="2" stroke-miterlimit="10" d="M20.6,107.4c-5.4,5.4-5.4,14.1,0,19.5l38.5,38.5
		c5.4,5.4,14.1,5.4,19.5,0c5.4-5.4,5.4-14.1,0-19.5l-38.5-38.5C34.7,102,26,102,20.6,107.4z"/>
	<rect x="30.7" y="98" fill="#E9AB22" width="37.4" height="34.1"/>
	<g>
		<circle fill="#FCDA21" cx="79.6" cy="102.2" r="13.7"/>
		<circle fill="#FCDA21" cx="114.3" cy="104.4" r="11.4"/>
		<rect x="64.7" y="102.8" fill="#E9AB22" width="71.2" height="13.6"/>
	</g>
	<rect x="2" y="85.6" fill="#FFFFFF" width="28.7" height="96"/>
</g>
<rect x="159.5" y="113.4" fill="#E5D8A3" stroke="#BCB184" stroke-miterlimit="10" width="69.5" height="44"/>
<g>
	<path fill="none" stroke="#BCB184" stroke-miterlimit="10" d="M191.8,131.4h4.8c5.5,0,10-3.3,10-7.2v-7.3h-24.8v7.3
		C181.8,128.1,186.3,131.4,191.8,131.4z"/>
	<rect x="181.8" y="116.8" fill="#BCB184" width="24.8" height="7.3"/>
</g>
</svg>
