<?xml version="1.0" encoding="utf-8"?>
<!-- Generator: Adobe Illustrator 18.1.0, SVG Export Plug-In . SVG Version: 6.00 Build 0)  -->
<svg version="1.1" id="Layer_1" xmlns="http://www.w3.org/2000/svg" xmlns:xlink="http://www.w3.org/1999/xlink" x="0px" y="0px"
	 viewBox="0 0 275 261" enable-background="new 0 0 275 261" xml:space="preserve">
<g>
	<g>
		<path fill="#D69B29" d="M158.8,38.9c0-6.2-5-11.3-11.3-11.3s-11.3,5-11.3,11.3c0,4.9,3.2,9.1,7.6,10.6v14.1h15V38.9L158.8,38.9
			L158.8,38.9z"/>
		<path fill="#D69B29" d="M86.3,97.3h26.5v33.5H86.3c-9.3,0-16.8-7.5-16.8-16.8C69.5,104.8,77,97.3,86.3,97.3z"/>
		<path fill="#E9AB22" d="M117.9,186h100.8c7.8,0,14.2-6.3,14.2-14.2V69.2c0-7.8-6.3-14.2-14.2-14.2H117.9
			c-7.8,0-14.2,6.3-14.2,14.2v102.6C103.8,179.7,110.1,186,117.9,186z"/>
		<g>
			<circle fill="#E9AB22" cx="197.4" cy="31.8" r="15.1"/>
			<rect x="192.4" y="31.8" fill="#E9AB22" width="20.1" height="33.1"/>
		</g>
		<path fill="#9E7D2D" d="M177.2,103.6c-1.2-1.7-41-4.6-41-4.6l17.4,21.9L177.2,103.6z"/>
		<path fill="#E9AB22" d="M157.4,156.7c6.5-6.5,17.2-6.5,23.7,0l46.9,46.9c6.5,6.5,6.5,17.2,0,23.7c-6.5,6.5-17.2,6.5-23.7,0
			l-46.9-46.9C150.9,173.9,150.9,163.3,157.4,156.7z"/>
		<path fill="#D69B29" d="M161.8,188.5h-38l-15.1,15.1c-6.5,6.5-6.5,17.2,0,23.7c6.5,6.5,17.2,6.5,23.7,0l34.1-34.1L161.8,188.5z"/>
		<rect x="187.5" y="78.7" fill="#E9AB22" width="45.5" height="41.5"/>
		<g>
			<circle fill="#FCDA21" cx="173.8" cy="84.5" r="16.6"/>
			<circle fill="#FCDA21" cx="131.6" cy="87.3" r="13.8"/>
			<rect x="105.3" y="85.3" fill="#E9AB22" width="86.6" height="16.6"/>
		</g>
		<g>
			<path fill="#00A79B" d="M203.6,160.5L69.9,66.4L54.1,88.7l133.9,94.1c4.3,3,10.4,2,13.4-2.3l4.6-6.6
				C209,169.6,208,163.6,203.6,160.5z"/>
			
				<rect x="171.6" y="146.5" transform="matrix(-0.818 -0.5752 0.5752 -0.818 234.1271 394.3429)" fill="#D1D3D4" width="15.6" height="27.3"/>
			<path fill="#F05154" d="M187.9,182.8c4.3,3,10.4,2,13.4-2.3l4.6-6.6c3-4.3,2-10.4-2.3-13.4l-10-7l-15.7,22.3L187.9,182.8z"/>
			<polygon fill="#E6BF7C" points="69.9,66.4 54.1,88.7 49.5,67.5 			"/>
			<path fill="#594A42" d="M51.1,75c3.3-0.3,5.9-3.1,5.9-6.6c0-0.4,0-0.8-0.1-1.2l-7.4,0.4L51.1,75z"/>
			<g opacity="0.1">
				<polygon points="181,144.7 69.7,66.4 65.3,72.9 177.3,150 				"/>
				<polygon points="53.9,88.6 165.3,167 169.6,160.9 59.5,81.1 				"/>
			</g>
			<path fill="#BCBEC0" d="M174.3,175.1L174.3,175.1c1.1,0.8,2.6,0.5,3.4-0.6l14.8-20.7c0.8-1.1,0.5-2.6-0.6-3.4l0,0
				c-1.1-0.8-2.6-0.5-3.4,0.6l-14.8,20.7C173,172.8,173.2,174.3,174.3,175.1z"/>
			<path fill="#BCBEC0" d="M166.8,170L166.8,170c1.1,0.8,2.6,0.5,3.4-0.6l14.8-20.7c0.8-1.1,0.5-2.6-0.6-3.4l0,0
				c-1.1-0.8-2.6-0.5-3.4,0.6l-14.8,20.7C165.4,167.7,165.7,169.2,166.8,170z"/>
		</g>
		<path fill="#E9AB22" stroke="#FFFFFF" stroke-width="2" stroke-miterlimit="10" d="M245.2,90.2c6.5,6.5,6.5,17.2,0,23.7
			l-46.9,46.9c-6.5,6.5-17.2,6.5-23.7,0c-6.5-6.5-6.5-17.2,0-23.7l46.9-46.9C228.1,83.7,238.7,83.7,245.2,90.2z"/>
		<rect x="232.9" y="60.9" fill="#FFFFFF" width="44.7" height="116.8"/>
	</g>
	<path fill="#EFCC86" d="M163,186h-40.8c-10.2,0-18.4-8.2-18.4-18.4v-36.8C121.9,131.3,137,160,163,186z"/>
</g>
</svg>
