<?xml version="1.0" encoding="utf-8"?>
<!-- Generator: Adobe Illustrator 18.1.0, SVG Export Plug-In . SVG Version: 6.00 Build 0)  -->
<svg version="1.1" id="Layer_1" xmlns="http://www.w3.org/2000/svg" xmlns:xlink="http://www.w3.org/1999/xlink" x="0px" y="0px"
	 viewBox="0 0 375.1 276.3" enable-background="new 0 0 375.1 276.3" xml:space="preserve">
<path fill="none" stroke="#E9AB22" stroke-linecap="round" stroke-linejoin="round" stroke-miterlimit="10" d="M16.8,257
	c114.3,2.9,228.7,2.7,343-0.5c-103.3-1.1-206.6-2.2-310-3.3"/>
<g>
	<g>
		<path fill="none" stroke="#E9AB22" stroke-linecap="round" stroke-linejoin="round" stroke-miterlimit="10" d="M83.6,91.7
			c4.8,0.1,9.3,2.1,12.7,5.5l46.9,46.9c3.5,3.5,5.5,8.3,5.5,13.3c0,5-2,9.7-5.5,13.3c-3.5,3.5-8.3,5.5-13.3,5.5c-5,0-9.7-2-13.3-5.5
			l-33.2-33.2v42.8c0,7.8,6.3,14.2,14.2,14.2h8.4L88.5,212c-6.5,6.5-6.5,17.2,0,23.7c6.5,6.5,17.2,6.5,23.7,0l41.3-41.3h45.1
			c7.8,0,14.2-6.3,14.2-14.2v-41.1h17.5c9.3,0,16.8-7.5,16.8-16.8c0-9.3-7.5-16.8-16.8-16.8h-17.5V77.6c0-7.8-6.3-14.2-14.2-14.2
			h-25.9v-5.5c4.4-1.5,7.6-5.7,7.6-10.6c0-6.2-5-11.3-11.3-11.3c-6.2,0-11.3,5-11.3,11.3v0v16.1H124v-9c5.9-2.1,10.1-7.6,10.1-14.2
			c0-8.3-6.8-15.1-15.1-15.1s-15.1,6.8-15.1,15.1v23.3h-6.3c-7.8,0-14.2,6.3-14.2,14.2L83.6,91.7L83.6,91.7z M171.2,93.7
			c1-6.7,6.7-11.9,13.7-11.9c7,0,12.7,5.2,13.7,11.9H171.2z M139.3,112c1.2-1.7,41-4.6,41-4.6l-17.4,21.9L139.3,112z M126.1,92.9
			c0-9.2,7.4-16.6,16.6-16.6c9.2,0,16.6,7.4,16.6,16.6c0,0.3,0,0.5,0,0.8h-33.2C126.1,93.4,126.1,93.2,126.1,92.9z"/>
		<path fill="none" stroke="#E9AB22" stroke-linecap="round" stroke-linejoin="round" stroke-miterlimit="10" d="M192.7,196.9
			l15.1,15.1c6.5,6.5,6.5,17.2,0,23.7c-6.5,6.5-17.2,6.5-23.7,0L150,201.6l4.7-4.7H192.7z"/>
		<path fill="none" stroke="#E9AB22" stroke-linecap="round" stroke-linejoin="round" stroke-miterlimit="10" d="M141.9,169.2
			c-6.5,6.5-17.2,6.5-23.7,0l-34.5-34.5V93.7c4.1,0.1,8.2,1.7,11.4,4.9l46.9,46.9C148.5,152,148.5,162.6,141.9,169.2z"/>
	</g>
	<g>
		<path fill="none" stroke="#EFCC86" stroke-linecap="round" stroke-linejoin="round" d="M199.2,144.6c0.1,0.2,6.6-4.1,6.7-3.9
			c0.4,0.7-20.7,16.4-20.3,17.1c0.4,0.7,26.7-16.2,27-15.6c0.6,1.1-37.4,26.1-36.8,27.1c0.6,1.1,36.2-22.2,36.8-21.2
			c0.8,1.4-47.7,32.1-47,33.3c0.7,1.2,46.4-28.2,47-27.1c1,1.7-58.4,36.9-57.5,38.5c0.7,1.2,56.6-34.8,57.5-33.2
			c0.6,1.1-50.5,33.5-49.7,34.9c0.7,1.2,48.9-30.1,49.7-28.7c0.5,0.9-39.4,27.6-38.8,28.7c0.5,0.9,38.2-23.5,38.8-22.4
			c0.5,0.8-30.1,21.5-29.5,22.4c0.4,0.7,29-17.6,29.4-17c0.4,0.6-20.3,16.4-19.9,17c0.3,0.5,17.9-11,18.2-10.5"/>
	</g>
	<g>
		<path fill="#414042" d="M272.6,154.9h-9.1l0-0.1l-4.9-8.4c-4.4-1-8.6-2.8-12.5-5.2l-9,2.3l-6.5-6.5l2.3-8.8
			c-2.7-4.2-4.6-8.7-5.7-13.6l-7.8-4.6V101l7.8-4.6c1-4.6,2.8-9,5.3-13l-2.4-9.1l6.5-6.5l9,2.3c4.1-2.6,8.5-4.5,13.2-5.5l4.8-8.1
			h9.1l0,0.1l4.8,8.1c4.6,1.1,9,2.9,13,5.4l9.6-2.5l6.5,6.5l-2.5,9.8c2.2,3.7,3.9,7.7,4.9,11.9l8.8,5.2v9.1l-8.8,5.2
			c-1.1,4.4-2.8,8.7-5.3,12.5l2.5,9.5l-6.5,6.5l-9.7-2.5c-3.8,2.3-8,4-12.3,5.1L272.6,154.9z M263.6,154.7h8.9l5-8.4l0.1,0
			c4.4-1,8.5-2.7,12.3-5.1l0,0l9.6,2.5l6.3-6.3l-2.5-9.5l0,0c2.4-3.9,4.2-8.1,5.3-12.6l0-0.1l8.8-5.2v-8.9l-8.8-5.2l0-0.1
			c-1-4.2-2.6-8.2-4.9-11.9l0,0l2.5-9.8l-6.3-6.3l-9.6,2.5l0,0c-4-2.5-8.4-4.4-13-5.4l-0.1,0l-4.8-8.1h-8.9l-4.8,8.1l-0.1,0
			c-4.7,1.1-9.2,2.9-13.2,5.5l0,0l-8.9-2.3l-6.3,6.3l2.3,9.1l0,0c-2.5,4-4.3,8.4-5.3,13l0,0.1l-7.7,4.6v8.9l7.7,4.6l0,0.1
			c1.1,4.9,3,9.4,5.7,13.6l0,0l-2.3,8.8l6.3,6.3l9-2.3l0,0c3.9,2.4,8.1,4.2,12.6,5.2l0.1,0l0,0L263.6,154.7z M268.5,134
			c-15.6,0-28.3-12.7-28.3-28.3s12.7-28.3,28.3-28.3c15.6,0,28.3,12.7,28.3,28.3S284.1,134,268.5,134z M268.5,77.7
			c-15.5,0-28,12.6-28,28c0,15.5,12.6,28,28,28s28-12.6,28-28C296.5,90.3,283.9,77.7,268.5,77.7z"/>
	</g>
	<g>
		<g>
			<path fill="#414042" d="M298.7,141.8l-0.5,0c-1.2-0.1-7.4-1.8-12.8-3.3c-9.3-2.6-12.1-3.3-12.9-3.3c-0.1,0-0.2,0-0.2,0
				c0,0,0,0,0,0c0.2,0.3,3.6,1.6,7.2,2.9c2.9,1,6.4,2.4,7.1,2.8l0.3,0.2l-0.4,0c-1,0-6.4-1.8-17.5-5.7l-0.6-0.2l0.6,0
				c7.5-0.2,14.6-3.4,19.9-8.8c5.3-5.4,8.2-12.6,8.2-20.2c0-6.7-2.3-13.2-6.5-18.3l-0.6-0.8l0.8,0.6c0.5,0.4,3.1,1.4,7.4,2.9
				c2.9,1.1,6.5,2.4,7.3,2.8l0.4,0.2l-0.4,0c-0.7,0-3-0.1-5-0.2l-0.1,0c-2.9-0.2-4.2-0.2-4.8-0.2c-0.4,0-0.5,0-0.5,0c0,0,0,0,0,0
				c0.2,0.4,5.2,2.2,10,4c4,1.5,8.9,3.3,9.8,3.8l0.4,0.3l-0.5,0c-1-0.1-5-0.9-8.6-1.7c-6.1-1.3-8.1-1.7-8.7-1.7c-0.2,0-0.2,0-0.2,0
				c0,0,0,0,0,0c0.2,0.4,4.6,2,8.9,3.6c3.5,1.3,7.8,2.9,8.7,3.4l0.4,0.3l-0.5,0c-1-0.1-4.7-0.8-8.1-1.4c-5.7-1.1-7.6-1.4-8.2-1.4
				c-0.2,0-0.2,0-0.2,0c0,0,0,0,0,0c0.2,0.3,4.3,1.9,8.4,3.4c3.2,1.2,7.3,2.7,8.2,3.2l0.4,0.3l-0.5,0c-1-0.1-4.6-0.8-7.9-1.4
				c-5.6-1.1-7.4-1.4-8-1.4c-0.2,0-0.2,0-0.2,0c0,0,0,0,0,0c0.2,0.3,3.2,1.4,6.4,2.6c2.4,0.9,5.4,2,6.2,2.4l0.4,0.2l-0.5,0
				c-0.9,0-3.8-0.4-6.2-0.7c-4.1-0.5-5.7-0.7-6.3-0.7c-0.2,0-0.3,0-0.3,0c0,0,0,0,0,0c0.1,0.2,1.9,0.8,4.5,1.8
				c1.7,0.6,3.7,1.3,4.3,1.7l0.4,0.2l-0.4,0c-0.2,0-0.4,0-0.8,0c-1,0-2.5,0-3.8-0.1c-2,0-3.1-0.1-3.8-0.1c-0.2,0-1,0-1.1,0.1
				c0,0,0,0,0,0c0.1,0.2,1.6,0.7,3.9,1.5c1.4,0.5,3.1,1.1,3.7,1.4l0.4,0.2l-0.4,0c-0.7,0.1-2.6,0.1-4.2,0.1c-3,0-4.3,0.1-4.4,0.2
				c0,0,0,0,0,0c0.1,0.2,1.6,0.7,3.8,1.5c1.4,0.5,3.1,1.1,3.6,1.4l0.4,0.2l-0.4,0c-0.5,0-1.9,0-3,0c-0.5,0-0.9,0-1.4,0
				c-0.5,0-0.9,0-1.3,0c-2.1,0-3.3,0-3.4,0.1c0,0,0,0,0,0c0.1,0.2,1.6,0.7,3.9,1.5c1.4,0.5,3.1,1.1,3.6,1.4l0.4,0.2l-0.5,0
				c-0.2,0-0.4,0-0.8,0c-1,0-2.5,0-3.8-0.1c-2,0-3.1-0.1-3.8-0.1c-0.2,0-1,0-1.1,0.1c0,0,0,0,0,0c0.1,0.2,1.6,0.7,4,1.6
				c1.4,0.5,3.2,1.1,3.7,1.4l0.4,0.2l-0.5,0c-0.8,0-3.1-0.1-4.9-0.2c-2.7-0.1-4-0.2-4.7-0.2c-0.5,0-0.6,0-0.6,0c0,0,0,0,0,0
				c0.1,0.2,2.4,1.1,5.7,2.3c2.1,0.8,4.7,1.7,5.4,2.1l0.5,0.3l-0.6,0c-0.9,0-4.2-0.6-6.9-1c-4.8-0.7-6.4-1-7-1c-0.2,0-0.2,0-0.2,0
				c0,0,0,0,0,0c0.2,0.3,3.9,1.7,7.8,3.1c3,1.1,6.7,2.5,7.6,2.9l0.5,0.3l-0.6,0c-1.1-0.1-5.5-1.1-9.4-2c-6.7-1.5-8.8-2-9.5-2
				c-0.1,0-0.2,0-0.2,0c0,0,0,0,0,0c0.2,0.4,4.5,2,8.8,3.5c3.4,1.3,7.7,2.8,8.5,3.3l0.5,0.3l-0.5,0c-1.1-0.1-6.3-1.4-10.9-2.6
				c-7.8-2-10.3-2.6-11-2.6c-0.1,0-0.2,0-0.2,0c0,0,0,0,0,0c0.2,0.4,5,2.2,9.7,3.9c3.9,1.4,8.6,3.2,9.6,3.7L298.7,141.8z
				 M273.2,134.9c1.3,0.2,4.5,1.1,12.3,3.3c4.6,1.3,9.8,2.7,11.9,3.2c-1.7-0.8-5.6-2.2-8.8-3.4c-7.4-2.7-9.7-3.6-9.9-4
				c0-0.1,0-0.2,0-0.2c0.1-0.2,0.2-0.2,0.4-0.2c0.7,0,3.1,0.6,11,2.6c3.8,1,8.1,2.1,10,2.4c-1.6-0.7-5-1.9-7.8-3
				c-6.6-2.4-8.7-3.3-8.9-3.6c0-0.1,0-0.1,0-0.2c0.1-0.2,0.2-0.2,0.4-0.2c0.7,0,2.7,0.4,9.5,2c3.2,0.7,6.8,1.5,8.5,1.8
				c-1.4-0.6-4.4-1.7-6.8-2.6c-6.1-2.2-7.8-2.9-7.9-3.2c0-0.1,0-0.1,0-0.2c0.1-0.1,0.2-0.2,0.5-0.2c0.6,0,2.2,0.2,7,1
				c2.2,0.3,4.8,0.7,6.2,0.9c-1.1-0.5-3.1-1.2-4.7-1.8c-4.7-1.7-5.7-2.1-5.8-2.4c0-0.1,0-0.2,0-0.2c0.1-0.2,0.2-0.2,0.8-0.2
				c0.7,0,1.9,0.1,4.7,0.2c1.5,0.1,3.3,0.2,4.3,0.2c-0.8-0.3-2.1-0.8-3.2-1.2c-3.4-1.2-4-1.5-4.1-1.7c0-0.1,0-0.1,0-0.2
				c0.1-0.2,0.2-0.2,1.3-0.2c0.7,0,1.8,0,3.8,0.1c1.3,0,2.8,0.1,3.8,0.1c0.1,0,0.2,0,0.2,0c-0.8-0.3-2-0.8-3.1-1.2
				c-3.3-1.2-3.9-1.4-4-1.7c0-0.1,0-0.1,0-0.2c0.1-0.2,0.1-0.3,3.6-0.3c0.4,0,0.8,0,1.3,0c0.5,0,0.9,0,1.4,0c0.8,0,1.8,0,2.4,0
				c-0.8-0.3-2-0.8-3.1-1.2c-3.3-1.2-3.9-1.4-4-1.7c0-0.1,0-0.1,0-0.2c0.1-0.2,0.1-0.3,4.7-0.3c1.3,0,2.8,0,3.7-0.1
				c-0.8-0.3-2.1-0.8-3.2-1.2c-3.3-1.2-3.9-1.4-4-1.7c0-0.1,0-0.1,0-0.2c0.1-0.2,0.2-0.2,1.3-0.2c0.7,0,1.8,0,3.8,0.1
				c1.3,0,2.8,0.1,3.8,0.1c0.1,0,0.2,0,0.3,0c-0.9-0.4-2.5-0.9-3.8-1.4c-3.8-1.4-4.6-1.7-4.7-1.9c0-0.1,0-0.1,0-0.2
				c0.1-0.2,0.2-0.2,0.5-0.2c0.6,0,2.1,0.2,6.3,0.7c2,0.2,4.3,0.5,5.6,0.7c-1.2-0.5-3.6-1.4-5.6-2.1c-5-1.8-6.4-2.4-6.6-2.7
				c0-0.1,0-0.2,0-0.2c0.1-0.2,0.2-0.2,0.4-0.2c0.6,0,2.4,0.3,8,1.4c2.7,0.5,5.7,1.1,7.2,1.3c-1.5-0.7-4.8-1.9-7.5-2.9
				c-6.5-2.4-8.4-3.1-8.5-3.5c0-0.1,0-0.1,0-0.2c0.1-0.2,0.2-0.2,0.4-0.2c0.6,0,2.5,0.3,8.2,1.4c2.8,0.5,5.9,1.1,7.4,1.4
				c-1.5-0.7-5.1-2-8-3.1c-6.8-2.5-8.9-3.3-9.1-3.7c0-0.1,0-0.1,0-0.2c0.1-0.2,0.2-0.2,0.4-0.2c0.7,0,2.6,0.4,8.8,1.7
				c3,0.6,6.4,1.3,7.9,1.6c-1.7-0.8-5.8-2.3-9.1-3.5c-7.6-2.8-10-3.7-10.2-4.1c0-0.1,0-0.2,0-0.2c0.1-0.2,0.2-0.2,0.7-0.2
				c0.6,0,2,0.1,4.9,0.2l0.1,0c1.6,0.1,3.5,0.2,4.5,0.2c-1.3-0.6-4.3-1.7-6.7-2.6c-3.7-1.4-5.9-2.2-6.9-2.6c4,5.1,6.2,11.5,6.2,18
				c0,7.6-2.9,14.9-8.3,20.4C284.8,130.9,279.2,133.9,273.2,134.9z M269.8,135.3c6.4,2.3,13.6,4.8,16.1,5.4
				c-1.3-0.6-4.1-1.6-6.3-2.4c-5.7-2.1-7.2-2.7-7.4-3c0,0,0-0.1,0-0.2C271.3,135.1,270.6,135.2,269.8,135.3z"/>
		</g>
		<g>
			<path fill="#414042" d="M250.4,128.9l-0.7-0.3c-1.3-0.5-2.9-1.1-5.2-2l0.1-0.2c1.6,0.6,3.3,1.2,5,1.8l0,0l0.1,0.1
				c0,0,0.1,0.1,0.1,0.1L250.4,128.9z"/>
		</g>
		<g>
			<path fill="#414042" d="M254.4,131.8c-11.8-4.4-22.5-8.4-23.1-9.3l-0.1-0.2l0.2,0c0,0,0.1,0,0.1,0c0.5,0,2,0.4,4.6,1.3
				c1.8,0.7,4.1,1.5,6.2,2.3c2.8,1,5.9,2.2,8.1,3.1l0,0c1.3,1,2.6,1.9,4.1,2.7L254.4,131.8z M231.7,122.6c2,1.2,13.5,5.6,21.4,8.5
				c-1-0.6-1.9-1.2-2.8-1.9c-2.2-0.9-5.4-2-8.1-3c-2.2-0.8-4.4-1.6-6.2-2.3C233.8,123.1,232.4,122.7,231.7,122.6z"/>
		</g>
		<g>
			<path fill="#414042" d="M264.5,60.1c0.5-0.1,2.2-0.3,3.6-0.4c3.8-0.4,3.8-0.4,3.9-0.5c0,0,0-0.1,0-0.1c-0.1-0.1-0.4-0.3-1.6-0.7
				c-0.4-0.1-1-0.3-1.3-0.4h-0.4c0,0,0,0,0,0c0.1,0.1,0.4,0.3,1.6,0.7c0.4,0.1,1,0.3,1.3,0.5c-0.6,0.1-2.2,0.2-3.5,0.4
				c-3.8,0.4-3.8,0.4-3.9,0.5c0,0,0,0.1,0,0.1c0.1,0.2,0.6,0.4,1.6,0.9c0.6,0.1,1.3,0.3,2.2,0.6C266.1,60.9,264.8,60.4,264.5,60.1z"
				/>
			<path fill="#414042" d="M267.9,61.8c-0.9-0.3-1.6-0.5-2.2-0.6c-1.4-0.6-1.6-0.8-1.7-0.9c0-0.1,0-0.2,0-0.2c0.1-0.2,0.1-0.2,4-0.6
				c1-0.1,2.3-0.2,3-0.3c-0.3-0.1-0.6-0.2-0.8-0.3c-1.3-0.4-1.6-0.5-1.7-0.7l0,0l0-0.2l0.2,0l0.5,0c0.3,0.1,0.8,0.3,1.3,0.4
				c1.3,0.4,1.6,0.5,1.7,0.7c0,0.1,0,0.1,0,0.2c-0.1,0.2-0.1,0.2-4,0.6c-1.1,0.1-2.5,0.2-3.2,0.3c0.5,0.3,1.6,0.7,3.1,1.3
				L267.9,61.8z M265.4,59.9c-0.2,0-0.3,0-0.5,0.1C265,59.9,265.2,59.9,265.4,59.9z M268.4,59.6c-0.1,0-0.2,0-0.4,0
				c-0.1,0-0.2,0-0.3,0c0.1,0,0.2,0,0.3,0C268.2,59.6,268.3,59.6,268.4,59.6z M271,59.3c-0.1,0-0.2,0-0.2,0
				C270.9,59.3,271,59.3,271,59.3z M269.2,58.2c0.3,0.1,0.7,0.2,1,0.4c0.1,0,0.2,0.1,0.3,0.1c-0.1,0-0.2-0.1-0.3-0.1
				C270,58.5,269.5,58.3,269.2,58.2z"/>
		</g>
		<g>
			<path fill="#414042" d="M275.7,64.8l-0.2-0.3c-1.3-0.5-2.7-1-4-1.5c-1.4-0.4-2.6-0.8-3.7-1.2C269.7,62.6,272.3,63.6,275.7,64.8z"
				/>
			<path fill="#414042" d="M276,65.1l-0.3-0.1c-3.4-1.3-6-2.2-7.9-3l0.1-0.2c1,0.3,2.3,0.7,3.7,1.2c1.3,0.5,2.7,1,4,1.5l0,0
				L276,65.1z"/>
		</g>
		<g>
			<path fill="#414042" d="M236,123.7c1.7,0.6,3.7,1.4,6.2,2.3c2.8,1,5.9,2.2,8.1,3.1c-0.2-0.2-0.4-0.3-0.6-0.5
				c-1.4-0.5-3.1-1.2-5.2-2C241.2,125.4,238.3,124.4,236,123.7z"/>
			<path fill="#414042" d="M251.1,129.5l-0.8-0.3c-2.2-0.9-5.4-2-8.1-3.1c-2.2-0.8-4.4-1.6-6.2-2.3l0.1-0.2c2.1,0.7,4.9,1.6,8.5,2.9
				c2.3,0.9,4,1.5,5.2,2l0,0c0.2,0.2,0.4,0.3,0.6,0.5L251.1,129.5z"/>
		</g>
		<g>
			<path fill="#414042" d="M258.8,73.4c-3.7-1.3-8.2-3-8.5-3.4c0,0,0-0.1-0.1-0.1c-0.1,0-0.1,0-0.2,0.1c0,0,0,0.1,0,0.1
				c0.2,0.3,2.9,1.4,8.7,3.5c3.4,1.2,7.6,2.8,8.4,3.3c-1.3-0.1-8.1-2.1-14.1-3.9c-2.6-0.8-4.8-1.4-6.6-1.9c-0.1,0.1-0.2,0.1-0.3,0.2
				c2.2,0.6,4.5,1.3,6.8,2c7.7,2.3,11.5,3.3,13.2,3.7c0.4,0,0.9-0.1,1.4-0.1C267.2,76.6,264.5,75.5,258.8,73.4z"/>
			<path fill="#414042" d="M266.1,77.1L266.1,77.1c-1.7-0.4-5-1.3-13.2-3.7l-0.1,0c-2.3-0.7-4.6-1.4-6.7-2l-0.3-0.1l0.6-0.3l0.1,0
				c1.7,0.5,3.8,1.1,6.6,1.9c5.2,1.5,10.9,3.2,13.2,3.7c-1.6-0.7-4.9-1.9-7.6-2.9c-6.6-2.4-8.6-3.2-8.8-3.6c0-0.1,0-0.1,0-0.2
				c0-0.1,0.2-0.2,0.3-0.1c0.1,0,0.1,0.1,0.1,0.1c0.5,0.4,5.1,2.1,8.5,3.3c6.4,2.4,8.5,3.2,8.7,3.6l0.1,0.2l-0.2,0l0.1,0.1l-0.5,0
				C266.8,77.1,266.5,77.1,266.1,77.1L266.1,77.1z M263.5,76.2c0.3,0.1,0.6,0.2,0.9,0.2C264.1,76.4,263.8,76.3,263.5,76.2z
				 M262.8,75c1.2,0.4,2.3,0.9,3.1,1.2C265.1,75.9,264.1,75.5,262.8,75z M252.4,71.2c1.7,0.7,4,1.5,6.4,2.4c0.1,0,0.2,0.1,0.4,0.1
				c-0.1,0-0.2-0.1-0.4-0.1C256.2,72.6,253.9,71.8,252.4,71.2z"/>
		</g>
		<g>
			<path fill="#414042" d="M231,121.3c0.8,0,3.8,0.4,6.3,0.7c6.3,0.8,6.6,0.8,6.7,0.6c0,0,0-0.1,0-0.1c-0.1-0.3-2.3-1.1-7.3-3
				c-2.8-1-6.2-2.3-7-2.7c0.7,0,3.2,0.2,5.3,0.3c5.4,0.4,5.6,0.4,5.7,0.2c0,0,0-0.1,0-0.1c-0.2-0.4-3.2-1.5-9.6-3.9
				c-3.8-1.4-8.4-3.1-9.3-3.7c1,0.1,4.9,0.9,8.4,1.6c7.8,1.6,8.7,1.7,8.8,1.5c0,0,0-0.1,0-0.1c-0.2-0.4-2.9-1.4-8.7-3.5
				c-3.4-1.3-7.6-2.8-8.5-3.3c0.9,0.1,4.7,0.8,8,1.4c7.5,1.4,8.3,1.5,8.4,1.3c0,0,0-0.1,0-0.1c-0.1-0.3-2.7-1.3-8-3.3
				c-3.1-1.1-6.9-2.5-7.7-3c0.9,0.1,4.4,0.7,7.6,1.2c7.2,1.3,7.9,1.4,8,1.1c0,0,0-0.1,0-0.1c-0.1-0.3-1.9-0.9-6-2.4
				c-2.2-0.8-4.9-1.8-5.7-2.2c0.8,0,3.5,0.3,5.8,0.5c5.8,0.6,6.1,0.6,6.2,0.4c0,0,0-0.1,0-0.1c-0.1-0.2-1.1-0.6-4.5-1.8
				c-1.6-0.6-3.5-1.3-4.1-1.6c0.7,0,2.8,0,4.5,0c4.7,0.1,4.9,0.1,4.9-0.1c0,0,0-0.1,0-0.1c-0.1-0.2-1.1-0.6-4.4-1.8
				c-1.6-0.6-3.5-1.2-4.1-1.6c0.7,0,2.9,0,4.7,0.1c4.8,0.1,5,0.1,5.1,0c0,0,0-0.1,0-0.1c-0.1-0.2-1.1-0.6-4.4-1.8
				c-1.6-0.6-3.4-1.2-4-1.5c0.7,0,3,0.1,4.8,0.2c5,0.2,5.2,0.2,5.3,0c0,0,0-0.1,0-0.1c-0.1-0.2-1.1-0.6-4.4-1.8
				c-1.6-0.6-3.5-1.3-4.1-1.6c0.8,0,3.2,0.1,5.1,0.3c5.3,0.3,5.5,0.3,5.6,0.2c0,0,0-0.1,0-0.1c-0.1-0.2-1.3-0.7-5.1-2.1
				c-1.8-0.7-4.1-1.5-4.7-1.8c0.9,0,3.7,0.4,6,0.6c6.1,0.7,6.4,0.7,6.5,0.5c0,0,0-0.1,0-0.1c-0.1-0.3-2.2-1.1-7-2.8
				c-2.6-1-5.9-2.1-6.7-2.6c1,0.1,4.8,0.8,8.2,1.5c7.7,1.5,8.6,1.7,8.7,1.4c0,0,0-0.1,0-0.1c-0.2-0.3-2.9-1.4-8.7-3.5
				c-3.4-1.2-7.5-2.8-8.4-3.3c1.1,0.1,6,1.3,10.3,2.4c9.4,2.3,10.7,2.5,10.8,2.3c0,0,0-0.1,0-0.1c-0.2-0.4-3.1-1.5-9.3-3.8
				c-3.7-1.3-8.1-3-9-3.5c1.2,0.1,6.7,1.6,11.6,2.8c10,2.6,11.9,3.1,12,2.7c0,0,0-0.1,0-0.1c-0.2-0.4-3.5-1.7-10.5-4.3
				c-2.2-0.8-4.5-1.7-6.4-2.4l-1.9-0.5c1.7,0.7,4.4,1.7,8.2,3.1c4.4,1.6,9.3,3.5,10.2,4c-1.1-0.1-6.7-1.5-11.6-2.9
				c-10-2.6-11.9-3.1-12-2.7c0,0,0,0.1,0,0.1c0.2,0.4,3.1,1.5,9.3,3.8c3.6,1.3,8.1,3,9,3.5c-1.1-0.1-6-1.3-10.3-2.4
				c-9.4-2.3-10.7-2.5-10.8-2.3c0,0,0,0.1,0,0.1c0.2,0.3,2.9,1.4,8.7,3.5c3.4,1.2,7.5,2.8,8.4,3.3c-1-0.1-4.8-0.8-8.3-1.5
				c-7.7-1.5-8.6-1.7-8.7-1.4c0,0,0,0.1,0,0.1c0.1,0.3,2.2,1.1,7,2.8c2.7,1,5.9,2.2,6.7,2.6c-0.8,0-3.7-0.4-6.1-0.6
				c-6.1-0.7-6.4-0.7-6.5-0.5c0,0,0,0.1,0,0.1c0.1,0.2,1.3,0.7,5.1,2.1c1.9,0.7,4.1,1.5,4.8,1.8c-0.8,0-3.2-0.1-5.1-0.3
				c-5.3-0.3-5.5-0.3-5.6-0.2c0,0,0,0.1,0,0.1c0.1,0.2,1.1,0.6,4.4,1.8c1.6,0.6,3.5,1.3,4.1,1.6c-0.7,0-3-0.1-4.8-0.2
				c-5-0.2-5.2-0.2-5.3,0c0,0,0,0.1,0,0.1c0.1,0.2,1.1,0.6,4.4,1.8c1.6,0.6,3.4,1.2,4,1.5c-0.7,0-2.9,0-4.7-0.1
				c-4.8-0.1-5-0.1-5.1,0c0,0,0,0.1,0,0.1c0.1,0.2,1.1,0.6,4.4,1.8c1.6,0.6,3.5,1.3,4.1,1.6c-0.7,0-2.8,0-4.5,0
				c-4.7-0.1-4.9-0.1-4.9,0.1c0,0,0,0.1,0,0.1c0.1,0.2,1.1,0.6,4.5,1.8c1.6,0.6,3.5,1.3,4.1,1.6c-0.8,0-3.5-0.3-5.7-0.5
				c-5.8-0.6-6.1-0.6-6.2-0.4c0,0,0,0.1,0,0.1c0.1,0.3,1.9,0.9,6,2.4c2.2,0.8,4.9,1.8,5.6,2.2c-1-0.1-4.4-0.7-7.6-1.2
				c-7.2-1.3-7.9-1.4-8-1.1c0,0,0,0.1,0,0.1c0.1,0.3,2.7,1.3,8,3.3c3.1,1.1,6.9,2.5,7.7,3c-1-0.1-4.7-0.8-8-1.4
				c-7.5-1.4-8.3-1.5-8.4-1.3c0,0,0,0.1,0,0.1c0.2,0.4,2.9,1.4,8.7,3.5c3.4,1.3,7.6,2.8,8.5,3.3c-1-0.1-4.9-0.9-8.4-1.6
				c-7.8-1.6-8.7-1.7-8.8-1.5c0,0,0,0.1,0,0.1c0.2,0.4,3.2,1.5,9.6,3.9c3.8,1.4,8.5,3.1,9.4,3.7c-0.7,0-3.2-0.2-5.3-0.3
				c-5.4-0.4-5.6-0.4-5.7-0.2c0,0,0,0.1,0,0.1c0.1,0.3,2.3,1.1,7.3,3c2.8,1,6.2,2.3,7,2.7c-0.8,0-3.8-0.4-6.3-0.7
				c-6.3-0.8-6.6-0.8-6.7-0.6c0,0,0,0.1,0,0.1c0.1,0.2,0.9,0.6,2.5,1.2c0.7,0.2,1.7,0.5,3,0.9C233.6,122.5,231.5,121.7,231,121.3z"
				/>
			<path fill="#414042" d="M236.1,123.6c-1.2-0.4-2.2-0.7-3-0.9c-2-0.8-2.5-1.1-2.5-1.3c0-0.1,0-0.2,0-0.2c0.1-0.2,0.2-0.2,0.5-0.2
				c0.6,0,2.1,0.2,6.3,0.7c2,0.3,4.4,0.6,5.6,0.7c-1.3-0.6-4.1-1.6-6.4-2.4c-5.7-2.1-7.2-2.7-7.4-3c0-0.1,0-0.1,0-0.2
				c0.1-0.2,0.2-0.2,0.6-0.2c0.6,0,2,0.1,5.2,0.3l0.2,0c1.7,0.1,3.6,0.3,4.6,0.3c-1.5-0.7-5.5-2.2-8.9-3.4c-7.2-2.7-9.5-3.6-9.7-4
				c0-0.1,0-0.1,0-0.2c0.1-0.2,0.2-0.2,0.4-0.2c0.6,0,2.6,0.4,8.5,1.6c2.9,0.6,6.1,1.2,7.6,1.5c-1.5-0.7-4.9-1.9-7.8-3
				c-6.6-2.4-8.6-3.2-8.8-3.6c0-0.1,0-0.1,0-0.2c0.1-0.2,0.2-0.2,0.4-0.2c0.6,0,2.4,0.3,8.1,1.4c2.7,0.5,5.7,1.1,7.2,1.3
				c-1.4-0.6-4.5-1.8-7.1-2.7c-6.1-2.3-7.9-3-8.1-3.3c0-0.1,0-0.1,0-0.2c0.1-0.2,0.2-0.2,0.4-0.2c0.6,0,2.4,0.3,7.7,1.2
				c2.5,0.5,5.3,1,6.8,1.2c-1.2-0.5-3.2-1.2-4.9-1.9c-4.6-1.7-5.9-2.2-6-2.5c0-0.1,0-0.2,0-0.2c0.1-0.2,0.2-0.2,0.5-0.2
				c0.6,0,2.1,0.1,5.8,0.5c1.8,0.2,3.9,0.4,5.1,0.5c-0.9-0.4-2.3-0.9-3.5-1.3c-3.7-1.3-4.4-1.6-4.5-1.9c0-0.1,0-0.1,0-0.2
				c0.1-0.2,0.2-0.2,1.5-0.2c0.7,0,1.7,0,3.5,0c1.2,0,2.5,0,3.5,0c0.2,0,0.4,0,0.5,0c-0.8-0.3-2.3-0.9-3.6-1.3
				c-3.6-1.3-4.3-1.6-4.4-1.9c0-0.1,0-0.1,0-0.2c0.1-0.2,0.2-0.2,1.2-0.2c0.7,0,1.9,0,4,0.1l0.1,0c1.4,0,3.1,0.1,4,0.1
				c-0.8-0.3-2.3-0.9-3.5-1.3c-3.6-1.3-4.3-1.6-4.4-1.8c0-0.1,0-0.1,0-0.2c0.1-0.2,0.2-0.2,0.9-0.2c0.7,0,1.9,0,4.5,0.2l0.1,0
				c1.5,0.1,3.2,0.1,4.2,0.2c-0.9-0.4-2.3-0.9-3.6-1.3c-3.7-1.3-4.4-1.6-4.5-1.9c0-0.1,0-0.1,0-0.2c0.1-0.2,0.2-0.2,0.7-0.2
				c0.6,0,1.9,0.1,5,0.3l0.1,0c1.6,0.1,3.4,0.2,4.4,0.3c-1-0.4-2.7-1.1-4.2-1.6c-4.2-1.5-5-1.9-5.1-2.1c0-0.1,0-0.2,0-0.2
				c0.1-0.2,0.2-0.2,0.5-0.2c0.6,0,2.1,0.2,6.1,0.6c1.9,0.2,4.2,0.5,5.4,0.6c-1.3-0.5-3.9-1.5-6.1-2.3c-5.4-2-6.9-2.6-7.1-2.9
				c0-0.1,0-0.1,0-0.2l0,0l0,0c0,0,0,0,0,0c0.1-0.2,0.2-0.2,0.4-0.2c0.6,0,2.5,0.3,8.4,1.5c2.8,0.6,6,1.2,7.5,1.4
				c-1.5-0.7-4.9-1.9-7.7-2.9c-6.6-2.4-8.6-3.2-8.7-3.6c0-0.1,0-0.1,0-0.2l0,0l0,0c0,0,0,0,0,0c0.1-0.2,0.2-0.2,0.4-0.2
				c0.7,0,3,0.5,10.5,2.4c3.6,0.9,7.7,1.9,9.5,2.2c-1.6-0.7-5.3-2.1-8.3-3.2c-7-2.6-9.2-3.4-9.4-3.8c0-0.1,0-0.1,0-0.2l0,0l0,0
				c0,0,0,0,0,0c0.1-0.2,0.3-0.2,0.4-0.2c0.8,0,3.2,0.6,11.7,2.8c4.2,1.1,8.8,2.3,10.8,2.7c-1.7-0.8-5.8-2.3-9.5-3.7
				c-3.9-1.5-6.6-2.4-8.2-3.1l0.1-0.2l1.9,0.5c1.9,0.7,4.2,1.6,6.4,2.4c7.9,2.9,10.4,3.9,10.6,4.3c0,0.1,0,0.2,0,0.2
				c-0.1,0.2-0.3,0.2-0.4,0.2c-0.8,0-3.2-0.6-11.7-2.8c-4.1-1.1-8.7-2.3-10.7-2.7c1.6,0.7,5.3,2.1,8.3,3.2c7,2.6,9.2,3.4,9.4,3.8
				c0,0.1,0,0.1,0,0.2l0,0l0,0c0,0,0,0,0,0c-0.1,0.2-0.2,0.2-0.4,0.2c-0.7,0-3-0.5-10.5-2.4c-3.6-0.9-7.7-1.9-9.5-2.2
				c1.6,0.7,4.9,1.9,7.6,2.9c6.6,2.4,8.6,3.2,8.7,3.6c0,0.1,0,0.1,0,0.2c-0.1,0.2-0.2,0.2-0.4,0.2c-0.6,0-2.5-0.3-8.4-1.5
				c-2.8-0.6-5.9-1.2-7.5-1.4c1.3,0.6,3.8,1.5,6,2.3c5.4,2,6.9,2.6,7.1,2.9c0,0.1,0,0.1,0,0.2c-0.1,0.2-0.2,0.2-0.5,0.2
				c-0.6,0-2.1-0.2-6.1-0.6c-1.9-0.2-4.1-0.5-5.4-0.6c1,0.4,2.7,1,4.1,1.5c4.2,1.5,5,1.9,5.2,2.1c0,0.1,0,0.2,0,0.2
				c-0.1,0.2-0.2,0.2-0.7,0.2c-0.6,0-1.9-0.1-5-0.3c-1.5-0.1-3.4-0.2-4.5-0.3c0.9,0.4,2.3,0.9,3.5,1.3c3.7,1.3,4.4,1.6,4.5,1.9
				c0,0.1,0,0.1,0,0.2c-0.1,0.2-0.2,0.2-0.9,0.2c-0.7,0-1.9,0-4.5-0.2l-0.1,0c-1.5-0.1-3.2-0.1-4.2-0.2c0.8,0.3,2.3,0.9,3.5,1.3
				c3.6,1.3,4.3,1.6,4.4,1.8c0,0.1,0,0.1,0,0.2c-0.1,0.2-0.2,0.2-1.2,0.2c-0.7,0-1.9,0-4-0.1l-0.1,0c-1.5,0-3.1-0.1-4.1-0.1
				c0.8,0.3,2.3,0.9,3.6,1.3c3.6,1.3,4.3,1.6,4.4,1.9c0,0.1,0,0.1,0,0.2c-0.1,0.2-0.2,0.2-1.5,0.2c-0.7,0-1.7,0-3.5,0
				c-1.1,0-2.5,0-3.5,0c-0.2,0-0.4,0-0.5,0c0.9,0.4,2.4,0.9,3.7,1.4c3.7,1.3,4.4,1.6,4.5,1.9c0,0.1,0,0.1,0,0.2
				c-0.1,0.2-0.2,0.2-0.5,0.2c-0.6,0-2.1-0.1-5.8-0.5c-1.8-0.2-4-0.4-5.1-0.5c1.1,0.5,3.3,1.3,5.1,1.9c4.6,1.7,5.9,2.2,6,2.5
				c0,0,0,0.1,0,0.2l0,0l0,0c0,0,0,0,0,0c-0.1,0.2-0.2,0.2-0.4,0.2c-0.6,0-2.4-0.3-7.7-1.2c-2.6-0.5-5.4-1-6.9-1.2
				c1.4,0.6,4.5,1.8,7.1,2.7c6.1,2.3,7.9,3,8.1,3.3c0,0.1,0,0.1,0,0.2l0,0l0,0c0,0,0,0,0,0c-0.1,0.2-0.2,0.2-0.4,0.2
				c-0.6,0-2.4-0.3-8.1-1.4c-2.7-0.5-5.8-1.1-7.3-1.3c1.5,0.7,5,1.9,7.8,3c6.6,2.4,8.7,3.2,8.8,3.6c0,0.1,0,0.1,0,0.2l0,0h0
				c0,0,0,0,0,0c-0.1,0.2-0.2,0.2-0.4,0.2c-0.6,0-2.6-0.4-8.5-1.6c-2.9-0.6-6.1-1.2-7.7-1.5c1.6,0.7,5.5,2.2,8.7,3.3
				c7.2,2.7,9.5,3.6,9.7,4c0,0.1,0,0.1,0,0.2c-0.1,0.2-0.2,0.2-0.6,0.2c-0.6,0-2-0.1-5.2-0.3c-1.6-0.1-3.7-0.3-4.8-0.3
				c1.3,0.6,4.1,1.6,6.5,2.5c5.7,2.1,7.2,2.7,7.4,3c0,0.1,0,0.1,0,0.2c-0.1,0.2-0.2,0.2-0.5,0.2c-0.6,0-2.1-0.2-6.3-0.7
				c-2.1-0.3-4.5-0.6-5.7-0.7c0.8,0.4,2.3,1,4.6,1.9L236.1,123.6z M230.6,117.4c1.3,0.6,3.7,1.4,6.1,2.3c2.1,0.8,4.6,1.7,6,2.3
				c-1.3-0.6-3.6-1.4-6-2.3C234.5,118.9,232,118,230.6,117.4z M230.2,116.7c0.4,0,0.9,0,1.4,0.1C231,116.8,230.5,116.7,230.2,116.7z
				 M223.8,110.7c1.9,0.7,4.6,1.8,7.3,2.7c2.5,0.9,5.4,2,7.3,2.8c-1.9-0.7-4.6-1.8-7.3-2.8C228.6,112.6,225.7,111.5,223.8,110.7z
				 M231.3,109.6c1.9,0.7,3.8,1.4,5.3,2C235.2,111,233.2,110.3,231.3,109.6z M223.7,106.8c1.4,0.6,3.4,1.3,5.5,2.1
				C227.2,108.1,225.2,107.3,223.7,106.8z M236,108.2c0.1,0,0.3,0,0.4,0.1C236.3,108.3,236.1,108.2,236,108.2z M230.9,105.5
				c1.7,0.6,3.5,1.3,4.9,1.8C234.4,106.8,232.7,106.2,230.9,105.5z M229.4,107c0.1,0,0.2,0,0.3,0.1c0.1,0,0.2,0,0.4,0.1
				c-0.1,0-0.2,0-0.4-0.1C229.6,107,229.5,107,229.4,107z M223.2,105.8c0,0,0.1,0,0.1,0C223.3,105.9,223.2,105.8,223.2,105.8z
				 M224.3,103.1c1.3,0.5,3.1,1.2,4.9,1.8C227.5,104.3,225.7,103.6,224.3,103.1z M227,100.2c1.1,0.5,3,1.1,4.9,1.9
				c1.7,0.6,3.7,1.4,4.9,1.8c-1.1-0.5-3-1.1-4.9-1.8C230.2,101.4,228.2,100.7,227,100.2z M235.8,99.6c0.7,0.3,1.3,0.5,1.7,0.7
				C237.1,100.1,236.5,99.8,235.8,99.6z M231.9,100.1c0.1,0,0.2,0,0.2,0c0.1,0,0.1,0,0.2,0c-0.1,0-0.1,0-0.2,0
				C232,100.1,231.9,100.1,231.9,100.1z M230,97.4c0.4,0.2,0.9,0.4,1.6,0.6C231,97.8,230.4,97.6,230,97.4z M237.3,97.1
				c0.1,0,0.3,0,0.4,0c0.1,0,0.4,0,0.6,0C238.1,97.1,237.7,97.1,237.3,97.1z M234,97c0.1,0,0.1,0,0.2,0c0.1,0,0.2,0,0.3,0
				c-0.1,0-0.2,0-0.3,0C234.1,97,234.1,97,234,97z M230.7,97c-0.1,0-0.4,0-0.6,0c0.2,0,0.5,0,0.8,0C230.8,97,230.7,97,230.7,97z
				 M236.9,96.1c0.6,0.2,1.1,0.4,1.4,0.6C238,96.5,237.5,96.3,236.9,96.1z M231.1,93.9c0.4,0.2,0.9,0.3,1.5,0.6
				C232,94.3,231.5,94.1,231.1,93.9z M234.9,93.6c0.1,0,0.3,0,0.4,0l0.1,0c0.2,0,0.3,0,0.4,0c-0.1,0-0.2,0-0.4,0l-0.1,0
				C235.2,93.6,235,93.6,234.9,93.6z M237.9,92.6c0.7,0.2,1.3,0.5,1.7,0.7C239.2,93.1,238.6,92.8,237.9,92.6z M235.8,91.8
				c0.1,0,0.1,0,0.2,0.1c0.1,0,0.2,0.1,0.2,0.1c-0.1,0-0.2-0.1-0.2-0.1C235.9,91.9,235.9,91.8,235.8,91.8z M232.4,90.5
				c0.4,0.2,0.9,0.4,1.6,0.6C233.4,90.9,232.8,90.7,232.4,90.5z M236.8,90.3L236.8,90.3c0.1,0,0.1,0,0.2,0c0,0,0,0,0,0L236.8,90.3
				C236.8,90.3,236.8,90.3,236.8,90.3z M239.8,89.4c0.6,0.2,1.1,0.4,1.5,0.6C241,89.8,240.4,89.6,239.8,89.4z M233.9,87.2
				c0.4,0.2,1,0.4,1.7,0.6C234.9,87.6,234.4,87.4,233.9,87.2z M241.3,86.1c0.9,0.3,1.8,0.7,2.3,0.9
				C243.1,86.8,242.3,86.5,241.3,86.1z M234,86.8c0.4,0,1,0,1.6,0.1C234.9,86.8,234.4,86.8,234,86.8z M234.8,83.6
				c0.5,0.2,1.3,0.5,2.2,0.9C236.1,84.2,235.3,83.9,234.8,83.6z M240.2,83.8c0.1,0,0.2,0,0.3,0c0.1,0,0.2,0,0.4,0
				c-0.1,0-0.2,0-0.4,0C240.4,83.9,240.3,83.8,240.2,83.8z M240.8,82c1.8,0.6,3.7,1.3,4.8,1.8C244.5,83.3,242.7,82.7,240.8,82z
				 M234.2,79.5c1.2,0.5,3,1.2,5,1.9C237.4,80.8,235.5,80,234.2,79.5z M235.2,76c1.7,0.7,4,1.5,6.3,2.4c2.1,0.8,4.6,1.7,6.3,2.4
				c-1.7-0.7-4-1.5-6.3-2.4C239.4,77.6,237,76.7,235.2,76z M241.1,80.3c0.2,0,0.3,0.1,0.5,0.1c0.2,0,0.3,0.1,0.5,0.1
				c-0.2,0-0.3-0.1-0.5-0.1C241.4,80.3,241.2,80.3,241.1,80.3z M245.8,76.2c2.2,0.8,4.6,1.7,6.2,2.3C250.4,77.9,248.1,77,245.8,76.2
				z M254.5,76.7c1.3,0.3,2.4,0.6,3.1,0.8C256.8,77.3,255.7,77,254.5,76.7z M248.3,73.3c0.2,0.1,0.5,0.2,0.7,0.3
				c3,1.1,6.3,2.3,8.4,3.2c-2-0.8-5.1-2-8.4-3.2C248.7,73.4,248.5,73.4,248.3,73.3z M237.9,73.2c1.5,0.6,3.7,1.4,5.9,2.2
				C241.7,74.6,239.5,73.8,237.9,73.2z M237.6,72.4c0.9,0.2,2,0.5,3.2,0.8C239.4,72.8,238.3,72.5,237.6,72.4z"/>
		</g>
		<g>
			<path fill="#414042" d="M236.6,139.6c-1.6-0.6-3.6-1.3-3.8-1.5c0,0,0-0.1-0.1-0.1c-0.1,0-0.1,0-0.2,0.1c0,0,0,0.1,0,0.1
				c0.1,0.2,1,0.6,4,1.6c1.6,0.6,3.6,1.3,3.8,1.5c0,0,0,0.1,0.1,0.1c0,0,0,0,0,0c0,0,0.1,0,0.1-0.1c0,0,0-0.1,0-0.1
				C240.5,141,239.6,140.6,236.6,139.6z"/>
			<path fill="#414042" d="M240.5,141.5C240.5,141.5,240.5,141.5,240.5,141.5c-0.1,0-0.2-0.1-0.2-0.1c-0.3-0.2-2.4-1-3.8-1.5
				c-3.3-1.2-3.9-1.5-4.1-1.7c0-0.1,0-0.1,0-0.2c0-0.1,0.2-0.2,0.3-0.1c0.1,0,0.1,0.1,0.1,0.1c0.3,0.2,2.4,1,3.8,1.5
				c3.3,1.2,3.9,1.5,4.1,1.7c0,0.1,0,0.1,0,0.2C240.7,141.5,240.6,141.5,240.5,141.5z M237.3,140c1.2,0.4,2.2,0.8,2.7,1
				C239.5,140.8,238.6,140.4,237.3,140z M233.2,138.4c0.5,0.2,1.4,0.6,2.6,1C234.6,139,233.7,138.6,233.2,138.4z"/>
		</g>
		<g>
			<path fill="#414042" d="M283.4,68.9c1.8,0.7,3.6,1.3,5.3,2c-0.4-0.3-0.9-0.5-1.3-0.7c-1.3-0.5-2.6-1-4-1.5
				c-8.7-3.2-18.6-6.9-19.5-7.7c0,0,0,0,0,0c0.4,0,1.8,0.4,3.8,1c1.1,0.3,2.3,0.7,3.7,1.2c1.2,0.4,2.5,0.8,3.9,1.2l-0.2-0.3
				c-1.9-0.6-3.6-1.2-5.1-1.6c-0.8-0.3-1.5-0.5-2.2-0.7c-0.9-0.3-1.6-0.5-2.2-0.6c-1.9-0.5-2-0.4-2-0.2c0,0,0,0.1,0,0.1
				C264,61.6,271.3,64.4,283.4,68.9z"/>
			<path fill="#414042" d="M288.7,71c-1.8-0.7-3.6-1.3-5.3-2c-13.2-4.9-19.4-7.3-19.7-8c0-0.1,0-0.2,0-0.2c0-0.1,0.1-0.2,0.4-0.2
				c0.3,0,0.9,0.1,1.8,0.4c0.6,0.2,1.3,0.4,2.2,0.6c0.6,0.2,1.3,0.4,2.2,0.7c1.4,0.4,3.1,1,5.1,1.6l0,0l0.4,0.6l-0.3-0.1
				c-1.4-0.4-2.7-0.9-3.9-1.2c-1.4-0.5-2.7-0.8-3.7-1.2c-1.6-0.5-2.7-0.8-3.3-0.9c2.2,1.2,11.1,4.5,19,7.4c1.4,0.5,2.7,1,4,1.5
				c0.4,0.2,0.9,0.5,1.3,0.7L288.7,71z M269.8,63.6c3.7,1.5,8.7,3.3,13.6,5.1c1.3,0.5,2.6,1,4,1.5c0,0,0,0,0,0
				c-1.2-0.5-2.6-1-3.9-1.5C278.7,67,273.6,65.1,269.8,63.6z M269.5,62.2c0.6,0.2,1.3,0.4,2.1,0.7c1.1,0.4,2.3,0.7,3.6,1.1l0,0
				c-2-0.7-3.7-1.2-5.1-1.6C269.9,62.4,269.7,62.3,269.5,62.2z"/>
		</g>
		<g>
			<path fill="#414042" d="M315.1,109c-0.2-0.3-2.8-1.4-8.4-3.4c-3.3-1.2-7.3-2.7-8.1-3.2c1,0.1,4.7,0.8,8.1,1.4
				c7.6,1.5,8.4,1.6,8.5,1.3c0,0,0-0.1,0-0.1c-0.2-0.4-3-1.4-9-3.6c-3.5-1.3-7.8-2.9-8.7-3.4c1,0.1,5,0.9,8.6,1.7
				c7.5,1.6,8.8,1.8,9,1.6l-2.1-1.3c-1.6-0.7-4.3-1.6-7.9-3c-4-1.5-8.9-3.3-9.8-3.8c0.7,0,3.1,0.1,5.1,0.2c5.2,0.3,5.4,0.3,5.5,0.1
				c0,0,0-0.1,0-0.1c-0.1-0.3-2.4-1.2-7.5-3c-2.9-1.1-6.4-2.3-7.2-2.8c0.9,0,3.9,0.4,6.4,0.7c6.4,0.8,6.7,0.8,6.8,0.6
				c0,0,0-0.1,0-0.2c-0.4-0.9-9.8-4.4-25.4-10.2c-11.5-4.3-24.4-9.1-25.2-10c1.2-0.1,13.2,4.1,23.9,7.8c5.9,2.1,11.9,4.2,16.4,5.7
				c7.6,2.5,7.7,2.2,7.8,2c0,0,0-0.1,0-0.1c-0.3-0.7-8.4-3.8-21.6-8.7c-9.6-3.6-20.6-7.7-21.4-8.5c0,0,0,0,0,0
				c1.4,0,12,3.6,21.5,6.9c5.3,1.8,10.8,3.7,14.8,5c6.9,2.2,7,2,7.1,1.8c0,0,0-0.1,0-0.1c-0.3-0.7-7.8-3.5-20.1-8.1
				c-9-3.3-19.1-7.1-19.9-7.9c1.2-0.1,11.3,3.4,20.3,6.4c5,1.7,10.2,3.4,14,4.6c6.5,2.1,6.6,1.8,6.7,1.6c0,0,0-0.1,0-0.1
				c-0.2-0.5-4.7-2.3-12.3-5.2l-0.4,0.1c6.3,2.4,11.8,4.5,12.4,5.1c-1.2,0-11.3-3.4-20.3-6.4c-5-1.7-10.2-3.4-14-4.6
				c-6.5-2.1-6.6-1.8-6.7-1.6c0,0,0,0.1,0,0.1c0.3,0.7,7.8,3.5,20.1,8.1c9,3.3,19.1,7.1,19.9,7.9c0,0,0,0,0,0
				c-1.4,0-12-3.6-21.5-6.9c-5.3-1.8-10.8-3.7-14.8-5c-6.9-2.2-7-2-7.1-1.8c0,0,0,0.1,0,0.1c0.3,0.7,8.4,3.8,21.6,8.7
				c9.7,3.6,20.6,7.7,21.4,8.5c-1.2,0.1-13.2-4.1-23.9-7.8c-5.9-2.1-11.9-4.2-16.4-5.7c-7.6-2.5-7.7-2.2-7.8-2c0,0,0,0.1,0,0.2
				c0.4,0.9,9.8,4.4,25.4,10.2c11.4,4.2,24.2,9,25.2,10c-0.7,0-3.9-0.4-6.5-0.8c-6.4-0.8-6.7-0.8-6.8-0.6c0,0,0,0.1,0,0.1
				c0,0,0.1,0.1,0.1,0.1c0.5,0.4,2.8,1.2,7.4,2.9c2.9,1.1,6.4,2.4,7.2,2.8c-0.7,0-3.1-0.1-5.1-0.2c-5.2-0.3-5.4-0.3-5.5-0.1
				c0,0,0,0.1,0,0.1c0.2,0.4,3.4,1.6,10.1,4.1c4,1.5,8.9,3.3,9.8,3.8c-1-0.1-5-0.9-8.6-1.7c-8.1-1.7-9-1.8-9.1-1.6c0,0,0,0.1,0,0.1
				c0.2,0.4,3,1.4,9,3.6c3.5,1.3,7.8,2.9,8.7,3.4c-0.9-0.1-4.7-0.8-8.1-1.4c-7.6-1.5-8.4-1.6-8.5-1.3c0,0,0,0.1,0,0.1
				c0.2,0.3,2.8,1.4,8.4,3.4c3.3,1.2,7.3,2.7,8.1,3.2c-0.9-0.1-4.6-0.7-7.9-1.4c-7.4-1.4-8.2-1.5-8.3-1.3c0,0,0,0.1,0,0.1
				c0.1,0.3,2.1,1,6.5,2.6c2.4,0.9,5.4,2,6.2,2.4c-0.9,0-3.8-0.4-6.2-0.7c-6.3-0.8-6.6-0.8-6.6-0.6c0,0,0,0.1,0,0.1
				c0.1,0.2,1.2,0.6,4.6,1.9c1.7,0.6,3.7,1.3,4.3,1.6c-0.7,0-2.8,0-4.6-0.1c-4.7-0.1-4.9-0.1-5,0.1c0,0,0,0.1,0,0.1
				c0.1,0.2,1,0.6,3.9,1.6c1.4,0.5,3.1,1.1,3.6,1.4c-0.7,0.1-2.6,0.1-4.2,0.1c-4.3,0.1-4.5,0.1-4.6,0.2c0,0,0,0.1,0,0.1
				c0.1,0.2,1,0.6,3.9,1.6c1.4,0.5,3,1.1,3.6,1.4c-0.7,0.1-2.7,0-4.3,0c-4.5,0-4.7,0-4.7,0.2c0,0,0,0.1,0,0.1c0.1,0.2,1,0.6,3.9,1.6
				c1.4,0.5,3.1,1.1,3.6,1.4c-0.7,0-2.8,0-4.6-0.1c-4.7-0.1-4.9-0.1-5,0.1c0,0,0,0.1,0,0.1c0.1,0.2,1,0.6,4.1,1.7
				c1.4,0.5,3.1,1.1,3.7,1.4c-0.8,0-3-0.1-4.9-0.2c-5.1-0.3-5.3-0.2-5.4-0.1c0,0,0,0.1,0,0.1c0.1,0.3,1.5,0.8,5.7,2.3
				c2.1,0.8,4.7,1.7,5.4,2.1c-0.9,0-4.2-0.6-6.9-1c-6.6-1-7.3-1.1-7.3-0.9c0,0,0,0.1,0,0.1c0.1,0.3,2.5,1.2,7.8,3.2
				c3,1.1,6.7,2.5,7.5,2.9c-1.1-0.1-5.4-1.1-9.3-2c-8.7-2-9.7-2.1-9.8-1.9c0,0,0,0.1,0,0.1c0.2,0.4,2.9,1.4,8.8,3.6
				c3.4,1.3,7.6,2.8,8.5,3.3c-1.1-0.1-6.3-1.4-10.8-2.6c-9.8-2.5-11.2-2.8-11.3-2.5c0,0,0,0.1,0,0.1c0.2,0.4,3.3,1.6,9.8,4
				c3.9,1.4,8.6,3.2,9.5,3.7c-1.2-0.1-7.3-1.8-12.8-3.3c-10.8-3-13.1-3.6-13.2-3.2c0,0,0,0.1,0,0.1c0.1,0.3,2.3,1.1,7.3,3
				c2.9,1.1,6.4,2.3,7.1,2.8c0,0,0,0,0,0c-1.2,0-8.8-2.6-17.5-5.7c-0.2,0-0.5,0-0.7,0c3.5,1.2,6.7,2.4,9.5,3.3c8.8,3,8.9,2.7,9,2.4
				c0,0,0-0.1,0-0.1c-0.1-0.3-2.3-1.1-7.3-3c-2.8-1-6.2-2.3-7-2.7c1.3,0.1,7.3,1.8,12.7,3.3c10.8,3,13.1,3.6,13.2,3.2
				c0,0,0-0.1,0-0.1c-0.2-0.4-3.3-1.6-9.8-4c-3.9-1.4-8.6-3.2-9.5-3.7c1.1,0.1,6.3,1.4,10.9,2.6c9.8,2.5,11.2,2.8,11.3,2.5
				c0,0,0-0.1,0-0.1c-0.2-0.4-2.9-1.4-8.8-3.6c-3.4-1.3-7.6-2.8-8.5-3.3c1,0.1,5.4,1.1,9.4,2c8.7,2,9.7,2.1,9.8,1.9c0,0,0-0.1,0-0.1
				c-0.1-0.3-2.5-1.2-7.8-3.2c-3-1.1-6.7-2.5-7.5-2.9c0.9,0,4.2,0.6,6.9,1c6.6,1,7.3,1.1,7.3,0.9c0,0,0-0.1,0-0.1
				c-0.1-0.2-1.5-0.8-5.7-2.3c-2.1-0.8-4.7-1.7-5.4-2.1c0.7,0,3,0.1,5,0.2c5.1,0.3,5.3,0.2,5.4,0.1c0,0,0-0.1,0-0.1
				c-0.1-0.2-1-0.6-4.1-1.7c-1.4-0.5-3.2-1.1-3.7-1.4c0.7,0,2.8,0,4.6,0.1c4.7,0.1,4.9,0.1,5-0.1c0,0,0-0.1,0-0.1
				c-0.1-0.2-1-0.6-3.9-1.6c-1.4-0.5-3.1-1.1-3.6-1.4c0.7-0.1,2.7,0,4.3,0c4.5,0,4.7,0,4.7-0.2c0,0,0-0.1,0-0.1
				c-0.1-0.2-1-0.6-3.9-1.6c-1.4-0.5-3.1-1.1-3.6-1.4c0.7-0.1,2.6-0.1,4.2-0.1c4.3-0.1,4.5-0.1,4.6-0.2c0,0,0-0.1,0-0.1
				c-0.1-0.2-1-0.6-3.9-1.6c-1.4-0.5-3.1-1.1-3.6-1.4c0.7,0,2.8,0,4.6,0.1c4.7,0.1,4.9,0.1,5-0.1c0,0,0-0.1,0-0.1
				c-0.1-0.2-1.2-0.6-4.6-1.9c-1.6-0.6-3.6-1.3-4.3-1.6c0.9,0,3.8,0.4,6.2,0.7c6.3,0.8,6.6,0.8,6.7,0.6c0,0,0-0.1,0-0.1
				c-0.1-0.3-2.1-1-6.5-2.6c-2.4-0.9-5.4-2-6.2-2.4c1,0.1,4.6,0.8,7.9,1.4c7.4,1.4,8.2,1.5,8.3,1.3C315.1,109,315.1,109,315.1,109z"
				/>
			<path fill="#414042" d="M298.3,141.9c-0.8,0-3.5-0.7-12.9-3.3c-4.5-1.3-9.6-2.7-11.8-3.2c1.4,0.6,4,1.5,6.1,2.3
				c5.7,2.1,7.2,2.7,7.4,3c0,0.1,0,0.1,0,0.2c-0.1,0.1-0.1,0.2-0.4,0.2c-0.5,0-2-0.3-8.7-2.6c-2.5-0.8-5.5-1.9-9.5-3.3l-0.6-0.2
				l0.7,0c0.2,0,0.5,0,0.7,0l0,0l0,0c6.5,2.3,14.1,5,16.7,5.6c-1.3-0.6-4.1-1.6-6.3-2.4c-5.7-2.1-7.2-2.7-7.4-3c0-0.1,0-0.1,0-0.2
				l0,0l0.1,0c0,0,0,0,0,0c0.1-0.1,0.3-0.2,0.4-0.2c0.8,0,3.5,0.7,12.9,3.3c4.6,1.3,9.8,2.7,11.9,3.2c-1.7-0.8-5.6-2.2-8.8-3.4
				c-7.4-2.7-9.7-3.6-9.9-4c0-0.1,0-0.1,0-0.2l0,0l0,0c0,0,0,0,0,0c0.1-0.2,0.2-0.2,0.4-0.2c0.7,0,3.1,0.6,11,2.6
				c3.8,1,8.1,2.1,10,2.4c-1.6-0.7-5-1.9-7.8-3c-6.6-2.4-8.7-3.3-8.9-3.6c0-0.1,0-0.1,0-0.2l0,0l0,0c0,0,0,0,0,0
				c0.1-0.2,0.2-0.2,0.4-0.2c0.7,0,2.7,0.4,9.5,2c3.2,0.7,6.8,1.5,8.5,1.8c-1.4-0.6-4.4-1.7-6.8-2.6c-6.1-2.2-7.8-2.9-7.9-3.2
				c0-0.1,0-0.1,0-0.2c0.1-0.1,0.2-0.2,0.5-0.2c0.6,0,2.2,0.2,7,1c2.2,0.3,4.8,0.7,6.2,0.9c-1.1-0.5-3.1-1.2-4.7-1.8
				c-4.7-1.7-5.7-2.1-5.8-2.4c0-0.1,0-0.2,0-0.2c0.1-0.2,0.2-0.2,0.8-0.2c0.7,0,1.9,0.1,4.7,0.2c1.5,0.1,3.3,0.2,4.3,0.2
				c-0.8-0.3-2.1-0.8-3.2-1.2c-3.4-1.2-4-1.5-4.1-1.7c0-0.1,0-0.1,0-0.2c0.1-0.2,0.2-0.2,1.3-0.2c0.7,0,1.8,0,3.8,0.1
				c1.3,0,2.8,0.1,3.8,0.1c0.1,0,0.2,0,0.2,0c-0.8-0.3-2-0.8-3.1-1.2c-3.3-1.2-3.9-1.4-4-1.7c0-0.1,0-0.1,0-0.2
				c0.1-0.2,0.1-0.3,3.6-0.3c0.4,0,0.8,0,1.3,0c0.5,0,0.9,0,1.4,0c0.8,0,1.8,0,2.4,0c-0.8-0.3-2-0.8-3.1-1.2c-3.3-1.2-3.9-1.4-4-1.7
				c0-0.1,0-0.1,0-0.2c0.1-0.2,0.1-0.3,4.7-0.3c1.3,0,2.8,0,3.7-0.1c-0.8-0.3-2.1-0.8-3.2-1.2c-3.3-1.2-3.9-1.4-4-1.7
				c0-0.1,0-0.1,0-0.2c0.1-0.2,0.2-0.2,1.3-0.2c0.7,0,1.8,0,3.8,0.1c1.3,0,2.8,0.1,3.8,0.1c0.1,0,0.2,0,0.3,0
				c-0.9-0.4-2.5-0.9-3.8-1.4c-3.8-1.4-4.6-1.7-4.7-1.9c0-0.1,0-0.1,0-0.2c0.1-0.2,0.2-0.2,0.5-0.2c0.6,0,2.1,0.2,6.3,0.7
				c2,0.2,4.3,0.5,5.6,0.7c-1.2-0.5-3.6-1.4-5.6-2.1c-5-1.8-6.4-2.4-6.6-2.7c0,0,0-0.1,0-0.2l0,0l0,0c0,0,0,0,0,0
				c0.1-0.2,0.2-0.2,0.4-0.2c0.6,0,2.4,0.3,8,1.4c2.7,0.5,5.7,1.1,7.2,1.3c-1.5-0.7-4.8-1.9-7.5-2.9c-6.5-2.4-8.4-3.1-8.5-3.5
				c0-0.1,0-0.1,0-0.2c0.1-0.2,0.2-0.2,0.4-0.2c0.6,0,2.5,0.3,8.2,1.4c2.8,0.5,5.9,1.1,7.4,1.4c-1.5-0.7-5.1-2-8-3.1
				c-6.8-2.5-8.9-3.3-9.1-3.7c0-0.1,0-0.1,0-0.2l0,0h0c0,0,0,0,0,0c0.1-0.2,0.2-0.2,0.4-0.2c0.7,0,2.6,0.4,8.8,1.7
				c3,0.6,6.4,1.3,7.9,1.6c-1.7-0.8-5.8-2.3-9.1-3.5c-7.6-2.8-10-3.7-10.2-4.1c0-0.1,0-0.2,0-0.2c0.1-0.2,0.2-0.2,0.7-0.2
				c0.6,0,2,0.1,4.9,0.2l0.1,0c1.6,0.1,3.5,0.2,4.5,0.2c-1.3-0.6-4.3-1.7-6.7-2.6c-4.6-1.7-6.9-2.6-7.4-2.9l0,0l-0.1-0.2l0,0
				c0-0.1,0-0.1,0-0.2c0.1-0.2,0.2-0.2,0.5-0.2c0.6,0,2.2,0.2,6.4,0.7c2.2,0.3,4.9,0.7,6.1,0.7c-2.2-1.3-14.2-5.8-24.8-9.8
				c-17-6.3-25-9.4-25.4-10.3c0-0.1,0-0.2,0-0.3c0.1-0.1,0.1-0.2,0.4-0.2c0.4,0,1.7,0.2,7.6,2.2c4.5,1.5,10.6,3.6,16.4,5.7l0.1,0
				c9.8,3.4,20.7,7.3,23.3,7.7c-2.1-1.2-12.5-5.1-21-8.2c-14.4-5.4-21.3-8-21.6-8.8c0-0.1,0-0.2,0-0.2c0.1-0.1,0.1-0.2,0.4-0.2
				c0.4,0,1.6,0.2,6.8,1.9c4.1,1.3,9.5,3.2,14.8,5c8.7,3,18.5,6.3,21,6.8c-2.1-1.2-11.3-4.6-19.5-7.6c-13.5-5-19.9-7.5-20.2-8.2
				c0-0.1,0-0.2,0-0.2c0-0.1,0.1-0.2,0.4-0.2c0.4,0,1.5,0.2,6.4,1.8c3.8,1.2,9,3,14,4.6c7.8,2.6,17.3,5.8,19.8,6.3
				c-1.6-0.9-7.1-3-12-4.8l-0.4-0.1l0.8-0.2l0,0c8.9,3.4,12.1,4.7,12.4,5.2c0,0.1,0,0.2,0,0.2c0,0.1-0.1,0.2-0.4,0.2
				c-0.4,0-1.5-0.2-6.4-1.8c-3.8-1.2-9-2.9-14-4.6l-0.3-0.1c-8.1-2.7-17.1-5.7-19.5-6.2c2.1,1.2,11.3,4.6,19.5,7.6
				c13.5,5,19.9,7.5,20.2,8.2c0,0.1,0,0.2,0,0.2c-0.1,0.1-0.1,0.2-0.4,0.2c-0.4,0-1.6-0.2-6.8-1.9c-4.1-1.3-9.5-3.2-14.8-5
				c-8.8-3-18.6-6.3-21-6.8c2.2,1.2,12.5,5.1,20.9,8.2c14.4,5.4,21.3,8,21.6,8.8c0,0.1,0,0.2,0,0.2c-0.1,0.1-0.1,0.2-0.4,0.2
				c-0.4,0-1.7-0.2-7.6-2.2c-4.5-1.5-10.6-3.6-16.4-5.7c-9.9-3.5-21-7.4-23.5-7.8c2.2,1.3,14.7,6,24.8,9.8c17,6.3,25,9.4,25.4,10.3
				c0,0.1,0,0.2,0,0.3c-0.1,0.2-0.2,0.2-0.5,0.2c-0.6,0-2.2-0.2-6.4-0.7c-2-0.3-4.5-0.6-5.7-0.7c1.3,0.6,4.2,1.6,6.6,2.5
				c5.8,2.1,7.4,2.8,7.6,3.1c0,0.1,0,0.1,0,0.2c-0.1,0.2-0.2,0.2-0.7,0.2c-0.6,0-2-0.1-4.8-0.2l-0.1,0c-1.7-0.1-3.5-0.2-4.5-0.2
				c1.5,0.7,5.8,2.3,9.4,3.6c3.8,1.4,6.3,2.3,7.9,3l2.3,1.4l-0.1,0.1c-0.1,0.1-0.2,0.1-0.3,0.1c-0.7,0-2.6-0.4-8.8-1.7
				c-3-0.6-6.3-1.3-7.9-1.6c1.6,0.7,5.1,2,8,3.1c6.8,2.5,8.9,3.3,9.1,3.7c0,0.1,0,0.1,0,0.2c-0.1,0.2-0.2,0.2-0.4,0.2
				c-0.6,0-2.5-0.3-8.2-1.4c-2.8-0.5-5.8-1.1-7.3-1.4c1.5,0.7,4.8,1.9,7.5,2.9c6.4,2.4,8.3,3.1,8.5,3.5c0,0.1,0,0.1,0,0.2
				c-0.1,0.2-0.2,0.2-0.4,0.2l0,0c-0.6,0-2.4-0.3-8-1.4c-2.6-0.5-5.6-1.1-7.1-1.3c1.2,0.5,3.5,1.4,5.5,2.1c5,1.8,6.4,2.4,6.6,2.7
				c0,0.1,0,0.2,0,0.2c-0.1,0.2-0.2,0.2-0.5,0.2c-0.6,0-2.1-0.2-6.3-0.7c-1.9-0.2-4.2-0.5-5.5-0.7c0.9,0.4,2.4,0.9,3.6,1.3
				c3.8,1.4,4.6,1.7,4.7,1.9c0,0.1,0,0.1,0,0.2c-0.1,0.2-0.2,0.2-1.3,0.2c-0.7,0-1.8,0-3.8-0.1c-1.3,0-2.8-0.1-3.8-0.1
				c-0.1,0-0.2,0-0.3,0c0.8,0.3,2,0.8,3.1,1.2c3.3,1.2,3.9,1.4,4,1.7c0,0.1,0,0.1,0,0.2c-0.1,0.2-0.1,0.3-4.7,0.3
				c-1.3,0-2.8,0-3.7,0.1c0.8,0.3,2.1,0.8,3.1,1.2c3.3,1.2,3.9,1.4,4,1.7c0,0.1,0,0.1,0,0.2c-0.1,0.2-0.1,0.3-3.6,0.3
				c-0.4,0-0.8,0-1.3,0l-0.1,0c-0.4,0-0.9,0-1.3,0c-0.8,0-1.8,0-2.4,0c0.8,0.3,2.1,0.8,3.2,1.2c3.3,1.2,3.9,1.4,4,1.7
				c0,0.1,0,0.1,0,0.2c-0.1,0.2-0.2,0.2-1.3,0.2c-0.7,0-1.8,0-3.8-0.1c-1.4,0-3.1-0.1-4-0.1c0.8,0.3,2.1,0.8,3.2,1.2
				c3.4,1.2,4,1.5,4.1,1.7c0,0.1,0,0.1,0,0.2c-0.1,0.2-0.2,0.2-0.8,0.2c-0.7,0-1.9-0.1-4.7-0.2l0,0c-1.5-0.1-3.4-0.2-4.4-0.2
				c1.1,0.5,3.2,1.2,4.9,1.9c4.7,1.7,5.7,2.1,5.8,2.4c0,0,0,0.1,0,0.2l0,0l0,0c0,0,0,0,0,0c-0.1,0.1-0.2,0.2-0.5,0.2
				c-0.6,0-2.2-0.2-7-1c-2.2-0.3-4.9-0.8-6.2-0.9c1.4,0.6,4.4,1.7,6.9,2.6c6.1,2.2,7.8,2.9,7.9,3.2c0,0.1,0,0.1,0,0.2l0,0l0,0
				c0,0,0,0,0,0c-0.1,0.2-0.2,0.2-0.4,0.2c-0.7,0-2.7-0.4-9.5-2c-3.3-0.7-6.9-1.6-8.6-1.8c1.6,0.7,5,1.9,7.8,3
				c6.6,2.4,8.7,3.3,8.9,3.6c0,0.1,0,0.1,0,0.2l0,0l0,0c0,0,0,0,0,0c-0.1,0.2-0.2,0.2-0.4,0.2c-0.7,0-3.1-0.6-11-2.6
				c-3.9-1-8.2-2.1-10.1-2.4c1.7,0.8,5.6,2.2,8.8,3.4c7.4,2.7,9.7,3.6,9.9,4c0,0.1,0,0.1,0,0.2l0,0l0,0c0,0,0,0,0,0
				C298.6,141.9,298.4,141.9,298.3,141.9z M290.2,138.3c2.2,0.8,4.4,1.6,6,2.3C294.7,140,292.5,139.1,290.2,138.3z M273.6,135.7
				c1.3,0.6,3.6,1.4,6,2.3c2.2,0.8,4.7,1.7,6.1,2.3c-1.3-0.6-3.7-1.4-6.1-2.3C277.5,137.2,275,136.3,273.6,135.7z M269.1,135.3
				c3.7,1.3,6.5,2.3,8.9,3.1c0.9,0.3,1.7,0.6,2.5,0.8C277.7,138.3,274,137,269.1,135.3C269.1,135.3,269.1,135.3,269.1,135.3z
				 M284.6,138.2c0.3,0.1,0.5,0.2,0.8,0.2c0.3,0.1,0.5,0.1,0.8,0.2c-0.3-0.1-0.5-0.1-0.8-0.2C285.1,138.3,284.9,138.2,284.6,138.2z
				 M293.7,135.8c1.9,0.7,3.8,1.4,5.3,2C297.6,137.2,295.7,136.5,293.7,135.8z M281.2,134.9c1.6,0.6,3.8,1.5,6.1,2.3
				C285.1,136.4,282.8,135.6,281.2,134.9z M289.5,136.2c0.2,0.1,0.4,0.1,0.6,0.2c0.2,0.1,0.4,0.1,0.6,0.2c-0.2-0.1-0.4-0.1-0.6-0.2
				C289.9,136.3,289.7,136.2,289.5,136.2z M295.6,132.6c2.3,0.8,4.9,1.8,6.3,2.4C300.5,134.5,298.1,133.6,295.6,132.6z M286,132.9
				c1.4,0.5,3.2,1.2,5.2,1.9C289.4,134.2,287.5,133.5,286,132.9z M293.3,133.7C293.3,133.7,293.4,133.7,293.3,133.7
				c0.1,0,0.1,0,0.2,0C293.5,133.8,293.4,133.7,293.3,133.7C293.4,133.7,293.3,133.7,293.3,133.7z M288.7,130
				c1.4,0.6,3.7,1.5,6.2,2.4C292.7,131.6,290.1,130.6,288.7,130z M294.4,130.3c0.1,0,0.2,0,0.3,0c0.1,0,0.3,0,0.4,0.1
				c-0.1,0-0.3,0-0.4-0.1C294.6,130.3,294.5,130.3,294.4,130.3z M299.1,126.1c0.5,0.2,0.9,0.4,1.3,0.5
				C300,126.5,299.6,126.3,299.1,126.1z M296.8,125.3c0.1,0,0.2,0.1,0.3,0.1c0.1,0,0.2,0.1,0.3,0.1c-0.1,0-0.2-0.1-0.3-0.1
				C297,125.4,296.9,125.3,296.8,125.3z M293.7,124.2c0.4,0.2,0.9,0.3,1.5,0.6C294.6,124.5,294.1,124.3,293.7,124.2z M301.3,123.8
				c0.2,0,0.3,0,0.5,0c0.1,0,0.2,0,0.4,0C301.9,123.9,301.6,123.9,301.3,123.8z M294.1,123.7c0.2,0,0.5,0,0.8,0
				C294.6,123.7,294.4,123.7,294.1,123.7c-0.1,0-0.3,0-0.4,0C293.8,123.7,294,123.7,294.1,123.7z M300.7,122.9
				c0.6,0.2,1.1,0.4,1.5,0.6C301.9,123.3,301.3,123.1,300.7,122.9z M295.8,121c0.3,0.1,0.7,0.3,1.2,0.5
				C296.5,121.3,296.1,121.2,295.8,121z M296.7,120.6c-0.3,0-0.6,0-0.9,0C296.1,120.6,296.4,120.6,296.7,120.6z M299.5,120.6
				c0.1,0,0.1,0,0.2,0l0.1,0C299.6,120.6,299.5,120.6,299.5,120.6z M303.6,120.5c-0.2,0-0.5,0-0.8,0
				C303.1,120.6,303.4,120.5,303.6,120.5z M302.4,119.6c0.5,0.2,0.9,0.3,1.2,0.5C303.3,120,302.9,119.8,302.4,119.6z M300.2,118.8
				c0.1,0,0.2,0.1,0.3,0.1c0.1,0,0.2,0.1,0.3,0.1c-0.1,0-0.2-0.1-0.3-0.1C300.4,118.9,300.3,118.8,300.2,118.8z M297.3,117.7
				c0.3,0.1,0.8,0.3,1.3,0.5C298.1,118.1,297.7,117.9,297.3,117.7z M301.3,117.2c-0.1,0-0.1,0-0.2,0c-0.1,0-0.1,0-0.2,0
				c0.1,0,0.1,0,0.2,0C301.2,117.2,301.2,117.2,301.3,117.2z M303.6,116.1c0.5,0.2,1,0.4,1.3,0.5
				C304.5,116.5,304.1,116.3,303.6,116.1z M301.3,115.3c0.1,0,0.2,0.1,0.3,0.1c0.1,0,0.2,0.1,0.3,0.1c-0.1,0-0.2-0.1-0.3-0.1
				C301.6,115.4,301.4,115.4,301.3,115.3z M298.5,114.3c0.4,0.1,0.8,0.3,1.4,0.6C299.4,114.6,298.8,114.4,298.5,114.3z M305.7,113.9
				c0.3,0,0.5,0,0.7,0c0.1,0,0.3,0,0.4,0C306.6,114,306.2,114,305.7,113.9z M298.9,113.8c0.2,0,0.4,0,0.6,0
				C299.3,113.8,299.1,113.8,298.9,113.8c-0.1,0-0.3,0-0.4,0C298.6,113.8,298.7,113.8,298.9,113.8z M305.1,112.8
				c0.7,0.3,1.3,0.5,1.8,0.7C306.5,113.3,305.9,113.1,305.1,112.8z M302.9,112C302.9,112,303,112,302.9,112c0.1,0,0.1,0.1,0.2,0.1
				C303.1,112.1,303,112.1,302.9,112C303,112,302.9,112,302.9,112z M299.1,110.6c0.4,0.2,1,0.4,1.7,0.7
				C300.2,111,299.6,110.8,299.1,110.6z M299.7,106.9c1.2,0.5,3.2,1.3,5.4,2c1.9,0.7,4.1,1.5,5.4,2c-1.2-0.5-3.3-1.3-5.4-2
				C303.2,108.3,300.9,107.5,299.7,106.9z M304.7,110.8c0.1,0,0.2,0,0.3,0c0.1,0,0.2,0,0.3,0c-0.1,0-0.2,0-0.3,0
				C304.9,110.9,304.8,110.9,304.7,110.8z M307.7,106.1c1.7,0.6,3.6,1.3,5,1.9C311.3,107.4,309.5,106.7,307.7,106.1z M306.4,107.6
				c0.1,0,0.3,0.1,0.4,0.1c0.1,0,0.3,0.1,0.4,0.1c-0.1,0-0.3-0.1-0.4-0.1C306.7,107.7,306.5,107.6,306.4,107.6z M300.5,103.4
				c1.3,0.5,3.1,1.2,5,1.9C303.8,104.6,301.9,103.9,300.5,103.4z M312.9,104.9c0.2,0,0.4,0.1,0.6,0.1
				C313.3,104.9,313.1,104.9,312.9,104.9z M307.1,101.9c2,0.7,4.1,1.5,5.6,2.1C311.3,103.4,309.2,102.7,307.1,101.9z M299.9,102.4
				c0.1,0,0.2,0,0.3,0C300.1,102.5,300,102.4,299.9,102.4z M299.5,99c1.4,0.6,3.2,1.2,5.2,2C302.8,100.3,300.9,99.6,299.5,99z
				 M309.3,98.7c1.3,0.5,2.6,1,3.6,1.4l0,0C312,99.7,310.8,99.3,309.3,98.7z M297.2,94.2c1.9,0.8,4.9,1.9,7.8,2.9
				c0.2,0.1,0.3,0.1,0.5,0.2c-0.2-0.1-0.3-0.1-0.5-0.2C302.3,96.1,299.2,95,297.2,94.2z M300,93.3c0.1,0,0.2,0,0.2,0l0.1,0
				c0.1,0,0.2,0,0.3,0c-0.1,0-0.2,0-0.3,0l-0.1,0C300.2,93.3,300.1,93.3,300,93.3z M297.7,90.3c0.2,0.1,0.3,0.1,0.5,0.2
				c2.2,0.8,4.8,1.8,6.3,2.4c-1.4-0.6-3.8-1.5-6.3-2.4C298.1,90.4,297.9,90.3,297.7,90.3z M292.1,88.1c0.8,0.3,2.1,0.8,3.6,1.4
				C294.3,89,293,88.5,292.1,88.1z M302.2,88.8c0.3,0,0.6,0.1,0.9,0.1C302.8,88.8,302.5,88.8,302.2,88.8z M296.9,88.1
				c0.2,0,0.4,0,0.6,0.1c0.2,0,0.3,0,0.5,0.1c-0.2,0-0.3,0-0.5-0.1C297.2,88.1,297,88.1,296.9,88.1z M291.6,87.5
				c0.4,0,0.8,0.1,1.4,0.1C292.4,87.5,292,87.5,291.6,87.5z M258.4,70.9c4.8,2,12.5,4.8,20.4,7.8c8.8,3.3,18.4,6.9,22.8,8.8
				c-4.2-1.9-13.3-5.3-22.8-8.8C271.1,75.8,263.2,72.9,258.4,70.9z M282.2,77.9c4.3,1.5,8.4,2.9,11.7,4c0.6,0.2,1.2,0.4,1.8,0.6
				C292.1,81.3,287.2,79.6,282.2,77.9z M263.7,69.1c4.1,1.6,10.1,3.9,16.4,6.2c6.1,2.3,12.4,4.6,16.5,6.3
				c-4.1-1.6-10.2-3.9-16.5-6.3C274.1,73,267.9,70.7,263.7,69.1z M283.3,74.4c4.3,1.5,8.5,2.9,11.9,4c1,0.3,1.9,0.6,2.7,0.9
				C294.3,78.1,288.8,76.3,283.3,74.4z M284.8,71.1c4.2,1.4,8.4,2.8,11.7,3.8c1,0.3,1.9,0.6,2.6,0.8
				C295.6,74.7,290.1,72.9,284.8,71.1z M258.7,69.8c4.1,1.3,10.2,3.4,16.1,5.5c-5-1.7-9.9-3.4-13.7-4.7
				C260.2,70.2,259.4,70,258.7,69.8z M292.4,72.1c2,0.8,3.7,1.4,5.1,2C295.8,73.4,294,72.7,292.4,72.1z M278,70.6
				c1.3,0.5,2.7,1,4,1.5c1,0.4,1.9,0.7,2.9,1.1c-1-0.4-1.9-0.7-2.9-1.1C280.7,71.6,279.3,71.1,278,70.6z M263,67.6
				c3.5,1.1,8.5,2.8,13.7,4.5c-4.1-1.4-8-2.7-11.1-3.7C264.6,68.1,263.7,67.9,263,67.6z"/>
		</g>
		<g>
			<path fill="#414042" d="M282.5,143.1c-1.2,0.2-13.5-4.2-24.3-8c-6-2.1-12.1-4.3-16.7-5.8c-7.7-2.6-7.9-2.3-8-2.1c0,0,0,0.1,0,0.2
				c0.3,0.8,8.6,3.9,22.1,8.9c9.9,3.7,21.1,7.8,21.9,8.7c-1.2,0.1-11.9-3.6-21.4-6.8c-5.3-1.8-10.7-3.6-14.7-4.9
				c-6.8-2.2-6.9-1.9-7-1.7c0,0,0,0.1,0,0.1c0.3,0.7,7.7,3.5,19.8,8c8.8,3.3,18.8,7,19.6,7.8c-1.2,0-11.2-3.3-20-6.3
				c-4.9-1.6-10-3.3-13.8-4.5c-6.4-2-6.5-1.8-6.6-1.6c0,0,0,0.1,0,0.1c0.2,0.5,4.8,2.3,12.4,5.2l0.1,0l0.2,0.1
				c2,0.8,4.2,1.6,6.7,2.5c8.6,3.2,18.2,6.8,19.1,7.6c-0.6,0.1-2.8,0-4.6,0c-4.7-0.1-4.9-0.1-4.9,0.1c0,0,0,0.1,0,0.1
				c0.1,0.2,1,0.6,3.9,1.6c1.6,0.6,3.6,1.3,3.8,1.5c0,0,0,0.1,0.1,0.1c0,0,0,0,0,0c0,0,0.1,0,0.1-0.1c0,0,0-0.1,0-0.1
				c-0.1-0.2-1-0.6-3.9-1.6c-1.4-0.5-3.1-1.1-3.6-1.4c0.7,0,2.8,0,4.5,0c4.7,0.1,4.9,0.1,4.9-0.1c0,0,0-0.1,0-0.1
				c-0.3-0.7-7.5-3.4-19.4-7.8c-8.6-3.2-18.3-6.8-19.2-7.6c0,0,0,0,0,0c1.3,0,11.2,3.3,20,6.3c4.9,1.6,10,3.3,13.8,4.5
				c6.4,2,6.5,1.8,6.6,1.6c0,0,0-0.1,0-0.1c-0.3-0.7-7.7-3.5-19.8-8c-8.8-3.3-18.8-7-19.6-7.8c1.2-0.1,11.9,3.6,21.4,6.8
				c5.3,1.8,10.7,3.6,14.7,4.9c6.8,2.2,6.9,1.9,7,1.7c0,0,0-0.1,0-0.2c-0.3-0.8-8.6-3.9-22.1-8.9c-9.9-3.7-21.1-7.9-21.9-8.7
				c1.2-0.1,13.5,4.2,24.3,8c6,2.1,12.1,4.3,16.7,5.8c7.8,2.6,7.9,2.3,8,2.1c0,0,0-0.1,0-0.2c-0.3-0.8-8-3.8-20.9-8.6
				c-0.9-0.2-1.7-0.4-2.6-0.7C270.3,137.9,281.8,142.2,282.5,143.1z"/>
			<path fill="#414042" d="M270.2,154.1C270.1,154.1,270.1,154.1,270.2,154.1c-0.1,0-0.2-0.1-0.2-0.1c-0.3-0.2-2.4-1-3.7-1.4
				c-3.3-1.2-3.9-1.4-4-1.7c0-0.1,0-0.1,0-0.2c0.1-0.2,0.2-0.2,1.5-0.2c0.7,0,1.7,0,3.5,0c1.2,0,2.5,0,3.5,0c0.3,0,0.6,0,0.8,0
				c-1.9-1.1-10.8-4.4-18.8-7.4c-2.4-0.9-4.7-1.7-6.7-2.5l-0.2-0.1l-0.1,0l0,0c-9-3.4-12.3-4.8-12.5-5.3c0-0.1,0-0.2,0-0.2
				c0-0.1,0.1-0.2,0.4-0.2c0.4,0,1.5,0.2,6.4,1.7c3.8,1.2,8.9,2.9,13.8,4.5l0.2,0.1c8,2.7,16.9,5.6,19.3,6.1
				c-2.1-1.2-11.1-4.5-19.2-7.5c-13.3-4.9-19.6-7.4-19.9-8.1c0-0.1,0-0.2,0-0.2c0-0.1,0.1-0.2,0.4-0.2c0.4,0,1.6,0.2,6.8,1.9
				c4,1.3,9.4,3.1,14.7,4.9l0.3,0.1c8.6,2.9,18.2,6.2,20.6,6.6c-2.2-1.3-12.8-5.2-21.5-8.4c-14.8-5.5-21.8-8.2-22.1-9
				c0-0.1,0-0.2,0-0.2c0.1-0.1,0.1-0.2,0.4-0.2c0.5,0,1.7,0.2,7.7,2.2c4.6,1.5,10.8,3.7,16.7,5.8l0.4,0.1c9.9,3.5,21.1,7.4,23.5,7.8
				c-2.1-1.3-14.5-5.9-22.8-9l0.1-0.2c0.8,0.3,1.7,0.5,2.6,0.7c13.9,5.2,20.6,7.8,20.9,8.6c0,0.1,0,0.2,0,0.3
				c-0.1,0.1-0.1,0.2-0.4,0.2c-0.5,0-1.7-0.2-7.7-2.2c-4.6-1.5-10.8-3.7-16.7-5.8c-9.5-3.4-21.3-7.5-23.9-8
				c2.2,1.2,12.8,5.2,21.5,8.4c14.8,5.5,21.8,8.2,22.1,9c0,0.1,0,0.2,0,0.2c0,0.1-0.1,0.2-0.4,0.2c-0.4,0-1.6-0.2-6.8-1.9
				c-4-1.3-9.5-3.1-14.7-4.9c-8.2-2.8-18.3-6.2-20.9-6.7c2.1,1.2,11.1,4.5,19.2,7.5c13.3,4.9,19.6,7.3,19.9,8.1c0,0.1,0,0.2,0,0.2
				c0,0.1-0.1,0.2-0.4,0.2c-0.4,0-1.5-0.2-6.4-1.7c-3.8-1.2-8.9-2.9-13.8-4.5c-8-2.7-17-5.7-19.5-6.2c2.1,1.2,10.9,4.4,18.7,7.3
				c13,4.8,19.1,7.2,19.4,7.9c0,0.1,0,0.2,0,0.2c-0.1,0.2-0.2,0.2-1.5,0.2c-0.7,0-1.7,0-3.5,0c-1.2,0-2.5,0-3.5,0
				c-0.2,0-0.3,0-0.5,0c0.8,0.3,2,0.8,3.1,1.2c3.3,1.2,3.9,1.4,4,1.7c0,0.1,0,0.1,0,0.2C270.4,154,270.3,154.1,270.2,154.1z
				 M270.2,153.8L270.2,153.8l0,0.2L270.2,153.8C270.2,153.9,270.2,153.9,270.2,153.8C270.2,153.9,270.2,153.8,270.2,153.8
				C270.2,153.8,270.2,153.8,270.2,153.8z M266,152.2c0.1,0,0.2,0.1,0.3,0.1c1.5,0.5,2.8,1,3.4,1.3c-0.6-0.3-1.8-0.7-3.4-1.3
				C266.2,152.3,266.1,152.2,266,152.2z M263.1,151.1c0.3,0.1,0.8,0.3,1.4,0.5C264,151.4,263.5,151.2,263.1,151.1z M270.5,150.7
				c0.1,0,0.2,0,0.2,0c0.1,0,0.4,0,0.6,0C271.1,150.7,270.8,150.8,270.5,150.7z M267,150.7c0.1,0,0.2,0,0.3,0c0.1,0,0.2,0,0.3,0
				c-0.1,0-0.2,0-0.3,0C267.2,150.7,267.1,150.7,267,150.7z M263.7,150.7c-0.1,0-0.4,0-0.6,0c0.2,0,0.5,0,0.8,0
				C263.9,150.7,263.8,150.7,263.7,150.7z M256,144.1c3.5,1.3,6.9,2.6,9.7,3.7C262.9,146.7,259.5,145.4,256,144.1z M261.4,143.9
				c1.9,0.6,3.7,1.2,5.3,1.7C265,145.1,263.2,144.5,261.4,143.9z M238.3,129.6c4.2,1.7,10.6,4.1,17.2,6.6c6.3,2.3,12.7,4.7,17,6.5
				c-4.2-1.7-10.5-4-17-6.5C249.1,133.8,242.6,131.3,238.3,129.6z M237.7,136.1c4,1.2,10.2,3.3,16,5.2c0.6,0.2,1.1,0.4,1.7,0.6
				c-0.5-0.2-1-0.3-1.5-0.5l-0.2-0.1c-4.9-1.6-10-3.3-13.8-4.5C239.1,136.5,238.4,136.3,237.7,136.1z M268.4,137.1
				c4.2,1.6,7.9,3,10.5,4.1C276.3,140.1,272.6,138.7,268.4,137.1z M250.8,138.3c1.1,0.4,2.3,0.8,3.4,1.3c1.2,0.4,2.4,0.9,3.5,1.3
				c-1.2-0.4-2.3-0.9-3.5-1.3C253,139.1,251.9,138.7,250.8,138.3z M246.1,140.4L246.1,140.4c0.3,0.1,0.5,0.2,0.8,0.3
				C246.6,140.6,246.4,140.5,246.1,140.4z M238.8,137.6c1.2,0.5,2.6,1,3.8,1.5C241.3,138.6,240,138.1,238.8,137.6z M238.3,132.4
				c4.2,1.3,11.2,3.7,17.7,5.9c0.3,0.1,0.6,0.2,0.9,0.3c-0.2-0.1-0.4-0.1-0.6-0.2l-0.3-0.1c-5.2-1.8-10.7-3.6-14.7-4.9
				C240.1,133,239.1,132.7,238.3,132.4z M238.9,128.6c4.9,1.6,12.3,4.2,19.2,6.6c0.3,0.1,0.6,0.2,0.8,0.3c-0.1-0.1-0.3-0.1-0.4-0.2
				l-0.4-0.1c-6-2.1-12.1-4.3-16.7-5.8C240.5,129.1,239.7,128.8,238.9,128.6z"/>
		</g>
		<g>
			<path fill="#414042" d="M231.4,122.4c0.4-0.1,2.1,0.4,4.7,1.2c2.3,0.7,5.2,1.7,8.5,2.9c1.6,0.6,3.3,1.2,5,1.8
				c-0.2-0.1-0.3-0.3-0.5-0.4c-3.2-1.2-6.3-2.2-8.9-3.1c-1.6-0.6-2.9-1-4-1.3c-1.3-0.4-2.3-0.7-3-0.9c-1.9-0.5-2-0.3-2-0.2
				c0,0,0,0.1,0,0.2c0.4,0.9,10,4.5,25.7,10.4c-0.8-0.3-1.6-0.7-2.4-1.2C243.5,127.6,232,123.3,231.4,122.4z"/>
			<path fill="#414042" d="M256.8,133c-17.2-6.4-25.4-9.6-25.8-10.4c0-0.1,0-0.2,0-0.3c0.1-0.1,0.1-0.2,0.4-0.2
				c0.3,0,0.9,0.1,1.8,0.4c0.8,0.2,1.8,0.5,3,0.9c1.1,0.4,2.5,0.8,4,1.3c2.3,0.8,5.2,1.8,8.9,3.1l0,0c0.2,0.1,0.3,0.3,0.5,0.4
				l0.5,0.4l-0.6-0.2c-1.7-0.6-3.4-1.2-5-1.8c-3.6-1.3-6.4-2.2-8.5-2.9c-2.2-0.7-3.6-1.1-4.3-1.2c2.1,1.3,14.9,6.1,22.8,9
				c0.8,0.4,1.6,0.8,2.4,1.2L256.8,133z M234.7,124.3c4.2,1.8,11.7,4.6,19.7,7.6c0,0,0,0,0,0C246.4,128.8,238.9,126,234.7,124.3z
				 M236.2,123.6c2.1,0.7,4.8,1.6,8.4,2.9c1.4,0.5,2.9,1,4.4,1.6c0,0,0,0,0,0c-3.6-1.3-6.5-2.3-8.8-3.1
				C238.6,124.4,237.3,124,236.2,123.6z"/>
		</g>
		<g>
			<path fill="#414042" d="M303.1,72.8l-0.5-0.5c-0.5-0.2-1.2-0.5-2.6-1c-1.2-0.4-2.8-1-3-1.1c0,0,0-0.1-0.1-0.1
				c-0.1,0-0.1,0-0.2,0.1c0,0,0,0.1,0,0.1c0.1,0.2,0.8,0.4,3.1,1.3c1,0.4,2.3,0.8,2.8,1c-0.9-0.1-4-1-8-2.3l-0.4,0.1
				c0.9,0.3,1.7,0.5,2.5,0.8C302.3,73,303,73,303.1,72.8z"/>
			<path fill="#414042" d="M302.9,73L302.9,73c-0.4,0-1.5-0.2-6.2-1.6c-0.8-0.2-1.6-0.5-2.5-0.8l-0.4-0.1l0.9-0.2l0,0
				c3,0.9,5.1,1.6,6.4,2c-0.4-0.2-0.9-0.3-1.3-0.5c-2.6-0.9-3.1-1.1-3.2-1.3c0-0.1,0-0.1,0-0.2c0-0.1,0.2-0.2,0.3-0.1
				c0.1,0,0.1,0.1,0.1,0.1c0.3,0.2,1.8,0.7,2.9,1.1c1.3,0.5,2.1,0.8,2.6,1l0,0l0.5,0.5l0.2,0.1l-0.1,0l-0.1,0.1
				C303.1,73,303,73,302.9,73z M294.7,70.5c0.7,0.2,1.4,0.5,2.1,0.7c0.2,0.1,0.4,0.1,0.6,0.2C296.6,71.1,295.7,70.8,294.7,70.5
				L294.7,70.5z"/>
		</g>
	</g>
</g>
</svg>
