<?xml version="1.0" encoding="utf-8"?>
<!-- Generator: Adobe Illustrator 18.1.0, SVG Export Plug-In . SVG Version: 6.00 Build 0)  -->
<svg version="1.1" id="Layer_1" xmlns="http://www.w3.org/2000/svg" xmlns:xlink="http://www.w3.org/1999/xlink" x="0px" y="0px"
	 viewBox="0 0 375.1 276.3" enable-background="new 0 0 375.1 276.3" xml:space="preserve">
<g>
	<path fill="none" stroke="#E9AB22" stroke-miterlimit="10" d="M219.2,222.7v-26.5h-35v26.5c0,9.3,7.8,16.8,17.5,16.8
		C211.4,239.5,219.2,232,219.2,222.7z"/>
	<g>
		<path fill="none" stroke="#E9AB22" stroke-miterlimit="10" d="M268.9,130h-16.7v-0.1V79.2c0-9.5-8.1-17.3-18-17.3h-23.8v-5.5
			c4.6-1.5,7.9-5.7,7.9-10.7c0-6.2-5.3-11.3-11.8-11.3c-6.5,0-11.8,5.1-11.8,11.3v16.2h-33.5v-9c6.1-2.1,10.5-7.7,10.5-14.3
			c0-8.3-7-15.1-15.7-15.1s-15.7,6.8-15.7,15.1v23.3h-4.9c-9.9,0-18,7.7-18,17.3v12.6c4.7,0.2,9.1,2,12.5,5.2l48.9,47
			c7.3,7,7.3,18.5,0,25.5c-3.5,3.4-8.3,5.3-13.3,5.3c-5,0-9.7-1.9-13.3-5.3L117.3,136v39.9c0,9.5,8.1,17.3,18,17.3h10.7v29.3
			c0,9.3,7.8,16.8,17.5,16.8c9.7,0,17.5-7.5,17.5-16.8v-29.3h0.4c0,0,0,0.1,0,0.1H233c0.8,0,1.7-0.1,2.5-0.2
			c9.4-0.6,16.7-8.1,16.7-17.2v-1v-11.3h16.7c9.7,0,17.5-7.5,17.5-16.8C286.4,137.5,278.5,130,268.9,130z M161.8,91.5
			c0-9.2,7.8-16.7,17.4-16.7c9.6,0,17.4,7.5,17.4,16.7c0,0.3,0,0.5,0,0.8h-34.6C161.8,92,161.8,91.7,161.8,91.5z M200.2,128
			l-24.6-17.3c1.2-1.7,42.8-4.7,42.8-4.7L200.2,128z M208.8,92.3c1-6.7,7-11.9,14.3-11.9s13.3,5.2,14.3,11.9H208.8z"/>
	</g>
	<path fill="none" stroke="#E9AB22" stroke-miterlimit="10" d="M165.8,172.7c-4.3,0-8.4-1.6-11.5-4.6l-35.8-34.3V94.6
		c3.7,0.4,7.1,1.9,9.8,4.5l48.9,47c6.3,6.1,6.3,16,0,22C174.2,171,170.2,172.7,165.8,172.7z"/>
	<g>
		<g>
			<path fill="none" stroke="#EFCC86" stroke-linecap="round" stroke-linejoin="round" d="M248.7,130.6c0,0-0.5-0.3-0.5-0.3
				c-0.1,0.2,0.6,5.9,0.5,6c-0.1,0.2-7.9-4.5-8-4.4c-0.2,0.3,8.2,10.4,8,10.7c-0.2,0.4-13.8-7.9-14-7.6c-0.3,0.5,14.2,13.9,14,14.3
				c-0.3,0.5-19-10.9-19.3-10.5c-0.4,0.6,19.7,15.7,19.3,16.2c-0.3,0.5-23-13.3-23.4-12.7c-0.3,0.5,23.8,18.8,23.4,19.4
				c-0.4,0.6-27.3-15.9-27.8-15.1c-0.4,0.7,28.3,21.1,27.8,21.9c-0.5,0.7-31.6-18.2-32.1-17.4c-0.5,0.8,32.2,22,31.6,23
				c-0.5,0.7-34.7-19.8-35.2-19.1c-0.6,0.9,33.8,23.1,33.3,24c-0.5,0.9-36.3-21-36.9-20c-0.5,0.8,33.9,23.9,33.4,24.6
				c-0.6,0.9-36.8-21.1-37.3-20.2c-0.5,0.8,33.3,22.8,32.7,23.8c-0.6,0.9-35.8-20.6-36.3-19.7c-0.6,0.9,29.7,21.6,29.3,22.2
				c-0.6,0.9-32.7-18.7-33.1-18c-0.3,0.6,21.6,17.7,21.3,18.3c-0.4,0.6-25.1-14.3-25.4-13.8c-0.3,0.5,14.1,13.3,13.8,13.8
				c-0.3,0.5-17.5-10.1-17.8-9.7c-0.1,0.2,6,9.4,5.8,9.7c-0.2,0.3-9.8-5.7-10-5.4c-0.1,0.1-1.4,5.3-1.5,5.4c0,0.1-2.6-1.5-2.6-1.4"
				/>
		</g>
	</g>
</g>
<path fill="none" stroke="#E9AB22" stroke-linecap="round" stroke-linejoin="round" stroke-miterlimit="10" d="M10,257
	c114.3,2.9,228.7,2.7,343-0.5c-103.3-1.1-206.6-2.2-310-3.3"/>
<g>
	<g>
		<g>
			<path fill="none" stroke="#C49A6C" stroke-linecap="round" stroke-linejoin="round" d="M264.5,154.9c0.2-0.4-5.9-1.9-5.8-2.3
				c0.2-0.5,21.7,6.2,21.9,5.6c0.3-0.8-21.7-7.8-21.3-8.6c0.4-0.9,37.2,12.8,37.5,11.9c0.5-1.2-37.4-13.7-36.9-14.9
				c0.5-1.3,52.6,19.5,53.1,18.2c0.6-1.6-53.1-19.6-52.5-21.2c0.6-1.4,57.5,21.6,58.1,20.2c0.7-1.7-58.2-21.5-57.5-23.2
				c0.6-1.4,57.5,21.6,58.1,20.2c0.7-1.7-58.2-21.5-57.5-23.2c0.6-1.4,57.5,21.6,58.1,20.2c0.7-1.7-58.2-21.5-57.5-23.2
				c0.6-1.4,57.5,21.6,58.1,20.2c0.7-1.7-58.2-21.5-57.5-23.2c0.6-1.4,57.5,21.6,58.1,20.2c0.7-1.7-58.2-21.5-57.5-23.2
				c0.6-1.4,57.5,21.6,58.1,20.2c0.7-1.7-58.2-21.5-57.5-23.2c0.6-1.4,57.5,21.6,58.1,20.2c0.7-1.7-58.2-21.5-57.5-23.2
				c0.6-1.4,57.5,21.6,58.1,20.2c0.7-1.7-58.2-21.5-57.5-23.2c0.6-1.4,57.5,21.6,58.1,20.2c0.7-1.7-58.2-21.5-57.5-23.2
				c0.6-1.4,57.5,21.6,58.1,20.2c0.7-1.7-58.2-21.5-57.5-23.2c0.6-1.4,57.5,21.6,58.1,20.2c0.7-1.7-58.2-21.5-57.5-23.2
				c0.6-1.4,57.5,21.6,58.1,20.2c0.7-1.7-58.2-21.5-57.5-23.2c0.6-1.4,57.5,21.6,58.1,20.2c0.7-1.7-58.2-21.5-57.5-23.2
				c0.6-1.4,57.5,21.6,58.1,20.2c0.7-1.7-58.2-21.5-57.5-23.2c0.6-1.4,57.5,21.6,58.1,20.2c0.6-1.5-47.7-17.6-47.1-19
				c0.5-1.2,47.3,17.2,47.7,16c0.4-1.1-32-11.7-31.6-12.8c0.3-0.8,31.9,10.5,32.2,9.8c0.3-0.7-16.3-5.8-16-6.5
				c0.2-0.4,16.5,3.9,16.6,3.5c0.1-0.3-0.6,0.1-0.5-0.2"/>
		</g>
	</g>
	
		<rect x="258" y="104.1" transform="matrix(0.9798 0.2 -0.2 0.9798 32.4058 -56.2209)" fill="none" stroke="#C49A6C" stroke-miterlimit="10" width="72.8" height="56.3"/>
	<polygon fill="none" stroke="#C49A6C" stroke-miterlimit="10" points="344.6,131.7 336.9,132.5 335.8,112 337.3,112.3 	"/>
	<g>
		<g>
			<path fill="none" stroke="#C49A6C" stroke-linecap="round" stroke-linejoin="round" d="M340,130.4c0.1-0.2-0.9-0.2-0.8-0.3
				c0-0.1,0-3.1,0-3.2c0.1-0.1-0.2,0.1-0.1,0"/>
		</g>
	</g>
</g>
</svg>
