<?xml version="1.0" encoding="utf-8"?>
<!-- Generator: Adobe Illustrator 18.1.0, SVG Export Plug-In . SVG Version: 6.00 Build 0)  -->
<svg version="1.1" id="Layer_1" xmlns="http://www.w3.org/2000/svg" xmlns:xlink="http://www.w3.org/1999/xlink" x="0px" y="0px"
	 viewBox="0 0 275 261" enable-background="new 0 0 275 261" xml:space="preserve">
<g>
	<g>
		<ellipse fill="#D59D29" cx="152.1" cy="48.9" rx="11.4" ry="11.3"/>
		<rect x="140.8" y="49.4" fill="#D59D29" width="15.4" height="18.2"/>
		<path fill="#EAAD21" d="M106.3,233.9L106.3,233.9c-9.1,0-16.5-7.4-16.5-16.5v-26.6c0-9.1,7.4-16.5,16.5-16.5h0
			c9.1,0,16.5,7.4,16.5,16.5v26.6C122.8,226.5,115.4,233.9,106.3,233.9z"/>
		<path fill="#EAAD21" d="M227.7,152.5L227.7,152.5c-2,8.9-10.8,14.5-19.7,12.6l-34.6-7.6c-8.9-2-14.5-10.8-12.6-19.7l0,0
			c2-8.9,10.8-14.5,19.7-12.6l34.6,7.6C224,134.8,229.6,143.6,227.7,152.5z"/>
		<g>
			<path fill="#EAAD21" d="M172.3,62.4H80.5c-9.7,0-17.7,7.9-17.7,17.7v28l0.1-0.1c4.2-8,14.3-11.1,22.3-6.9l0,0
				c8,4.2,11.1,14.3,6.9,22.3l-24.8,46.9c-1.1,2-2.5,3.7-4.1,5.1c1.6,8.1,8.8,14.4,17.3,14.4h91.8c9.7,0,17.7-7.9,17.7-17.7V80.1
				C189.9,70.3,182,62.4,172.3,62.4z"/>
			<path fill="#EAAD21" d="M66.3,167.2l24.8-46.9c4.2-8,1.1-18-6.9-22.3l0,0c-8-4.2-18-1.1-22.3,6.9l-0.1,0.1l-24.7,46.8
				c-4.2,8-1.1,18,6.9,22.3l0,0c6,3.2,13.2,2.2,18.1-1.8C63.8,170.9,65.2,169.2,66.3,167.2z"/>
		</g>
		<path fill="#EAAD21" d="M140.1,191.6v25.8c0,9.1,7.4,16.5,16.5,16.5h0c9.1,0,16.5-7.4,16.5-16.5v-25.8H140.1z"/>
		<path fill="#F0CC7F" d="M124.3,189.5h48c9.7,0,17.7-7.9,17.7-17.7l-0.5-44.1C145.4,127.7,126.4,155.6,124.3,189.5z"/>
		<g>
			<path fill="#FCDC00" d="M135.5,94.7c0-10.9-7.5-19.8-16.7-19.8s-16.7,8.9-16.7,19.8c0,0.3,0,0.5,0,0.8h33.4
				C135.5,95.2,135.5,95,135.5,94.7z"/>
			<path fill="#FCDC00" d="M159.5,81.7c-7.5,0-13.6,6.2-13.6,13.8h27.3C173.1,87.9,167,81.7,159.5,81.7z"/>
			<polygon fill="#9E7E2D" points="115,110.3 154.3,107.1 138.1,127.7 			"/>
		</g>
		<ellipse fill="#EAAD21" cx="105.2" cy="41.6" rx="15.9" ry="14.6"/>
		<rect x="89.3" y="41.6" fill="#EAAD21" width="21.1" height="25.9"/>
	</g>
	<g>
		<path fill="#939598" d="M219.7,93.6c2.1,0,4.2,0,6.3,0c1.6,0.2,3.2,0.3,4.8,0.6c4.7,0.6,9.4,1.7,13.6,4.1c3.5,2.1,5.4,5,5.3,9.2
			c-0.1,11.3-0.1,22.6,0,33.9c0,3.4-1.3,6-4.1,8c-3.9,2.8-8.4,3.9-13.1,4.7c-2.2,0.4-4.4,0.6-6.6,0.8c-2.1,0-4.2,0-6.3,0
			c-0.3-0.1-0.6-0.2-0.9-0.2c-2.4-0.3-4.9-0.5-7.3-0.9c-4.2-0.8-8.3-2-11.8-4.6c-2.5-1.9-3.8-4.3-3.8-7.5c0-11.5,0.1-23.1,0-34.6
			c0-3.4,1.3-6,4.1-8c3.9-2.8,8.3-3.9,12.9-4.7C215.2,94.1,217.4,93.9,219.7,93.6z M224.7,114.8c2-0.3,6-0.7,9.9-1.3
			c3.2-0.5,6.2-1.6,8.9-3.6c3.1-2.3,3.2-5.2,0.1-7.5c-1.6-1.2-3.5-2.2-5.4-2.8c-9-2.9-18.2-2.9-27.4-1c-3.3,0.7-6.4,1.7-9,3.9
			c-2.7,2.2-2.8,4.8,0,7c1.4,1.1,3.1,2,4.7,2.6C211.7,114.2,217.2,114.7,224.7,114.8z M245.9,123.9c-2.7,2.4-5.7,3.6-8.9,4.4
			c-7.8,2-15.7,2.2-23.6,1c-4-0.6-7.9-1.6-11.4-3.8c-0.7-0.4-1.4-0.9-2.2-1.5c0,2.3,0.1,4.4,0,6.5c-0.1,1.7,0.6,3.1,1.9,4
			c1.6,1.1,3.3,2.2,5.1,2.8c9.2,3.1,18.5,3.2,27.9,1.3c3.4-0.7,6.7-1.7,9.4-4.1c0.9-0.8,1.7-2.1,1.8-3.2
			C246,128.9,245.9,126.5,245.9,123.9z M199.8,135.4c0,2.3,0.1,4.4,0,6.4c-0.1,1.8,0.6,3.3,2,4.2c1.8,1.1,3.6,2.3,5.6,2.9
			c9,2.9,18.2,2.9,27.4,1c3.3-0.7,6.4-1.7,9-3.9c0.8-0.7,1.8-1.8,1.9-2.8c0.3-2.5,0.1-5,0.1-7.3c-2.3,1.1-4.5,2.4-6.9,3.3
			c-7,2.4-14.3,2.8-21.7,2.1C211.1,140.7,205,139.6,199.8,135.4z M245.9,113.4c-15.4,7-30.7,7-46.1,0c0,1.7,0.1,3.6,0,5.4
			c-0.1,1.8,0.6,3.3,2,4.2c1.7,1.1,3.4,2.1,5.3,2.8c9,3,18.1,3.1,27.3,1.2c3.3-0.7,6.4-1.6,9.1-3.6c1.3-0.9,2.4-2.1,2.4-3.8
			C245.9,117.5,245.9,115.4,245.9,113.4z"/>
		<path fill="#BCBEC0" d="M224.7,114.8c-7.5-0.2-13-0.6-18.3-2.7c-1.7-0.7-3.3-1.5-4.7-2.6c-2.7-2.1-2.6-4.8,0-7
			c2.6-2.2,5.8-3.2,9-3.9c9.2-2,18.4-1.9,27.4,1c1.9,0.6,3.8,1.6,5.4,2.8c3.1,2.2,3,5.2-0.1,7.5c-2.6,2-5.7,3-8.9,3.6
			C230.7,114.2,226.7,114.6,224.7,114.8z"/>
		<path fill="#BCBEC0" d="M245.9,123.9c0,2.7,0.2,5-0.1,7.4c-0.1,1.1-0.9,2.4-1.8,3.2c-2.6,2.4-6,3.4-9.4,4.1
			c-9.4,1.9-18.7,1.8-27.9-1.3c-1.8-0.6-3.5-1.7-5.1-2.8c-1.3-0.9-2-2.3-1.9-4c0.1-2.1,0-4.2,0-6.5c0.8,0.6,1.5,1.1,2.2,1.5
			c3.5,2.2,7.4,3.2,11.4,3.8c7.9,1.2,15.8,1,23.6-1C240.1,127.5,243.1,126.2,245.9,123.9z M241.9,132.2c0.1-0.9-0.7-1.9-1.6-2
			c-1.1-0.1-2,0.6-2.1,1.6c-0.1,1,0.6,1.9,1.6,2C240.9,133.9,241.8,133.2,241.9,132.2z"/>
		<path fill="#BCBEC0" d="M199.8,135.4c5.2,4.2,11.3,5.3,17.5,5.8c7.3,0.7,14.6,0.3,21.7-2.1c2.4-0.8,4.6-2.2,6.9-3.3
			c0,2.2,0.2,4.8-0.1,7.3c-0.1,1-1,2.1-1.9,2.8c-2.6,2.2-5.8,3.2-9,3.9c-9.2,2-18.4,1.9-27.4-1c-2-0.6-3.8-1.8-5.6-2.9
			c-1.5-0.9-2.1-2.4-2-4.2C199.8,139.8,199.8,137.7,199.8,135.4z M238.2,143.4c0,1,0.8,2,1.9,1.9c1,0,1.8-0.9,1.9-1.8
			c0-1-0.8-1.8-1.7-1.9C239.1,141.6,238.3,142.4,238.2,143.4z"/>
		<path fill="#BCBEC0" d="M245.9,113.4c0,2,0,4.1,0,6.2c0,1.7-1.1,2.8-2.4,3.8c-2.7,2-5.9,3-9.1,3.6c-9.2,1.8-18.3,1.7-27.3-1.2
			c-1.9-0.6-3.6-1.7-5.3-2.8c-1.4-0.9-2.1-2.4-2-4.2c0.1-1.9,0-3.8,0-5.4C215.2,120.4,230.4,120.4,245.9,113.4z M240.1,122.3
			c1,0,1.8-0.8,1.8-1.8c0-1-0.9-1.9-1.9-1.8c-1.1,0-1.8,0.7-1.8,1.8C238.2,121.5,239,122.3,240.1,122.3z"/>
		<path fill="#00AEEF" d="M241.9,132.2c-0.1,1-1,1.7-2.1,1.6c-1-0.1-1.7-1-1.6-2c0.1-1.1,1-1.7,2.1-1.6
			C241.3,130.3,242,131.2,241.9,132.2z"/>
		<path fill="#00AEEF" d="M238.2,143.4c0-1.1,0.9-1.9,2-1.8c1,0.1,1.8,0.9,1.7,1.9c0,1-0.9,1.8-1.9,1.8
			C239.1,145.4,238.2,144.5,238.2,143.4z"/>
		<path fill="#00AEEF" d="M240.1,122.3c-1.1,0-1.9-0.8-1.9-1.8c0-1,0.7-1.8,1.8-1.8c1.1,0,1.9,0.8,1.9,1.8
			C241.9,121.5,241.1,122.3,240.1,122.3z"/>
	</g>
</g>
</svg>
