<?xml version="1.0" encoding="utf-8"?>
<!-- Generator: Adobe Illustrator 18.1.0, SVG Export Plug-In . SVG Version: 6.00 Build 0)  -->
<svg version="1.1" id="Layer_1" xmlns="http://www.w3.org/2000/svg" xmlns:xlink="http://www.w3.org/1999/xlink" x="0px" y="0px"
	 viewBox="0 0 375.1 276.3" enable-background="new 0 0 375.1 276.3" xml:space="preserve">
<g>
	<g>
		<path fill="none" stroke="#E9AB22" stroke-linecap="round" stroke-linejoin="round" stroke-miterlimit="10" d="M275.5,92.2V78.1
			c0-7.8-6.3-14.2-14.2-14.2h-6.3V40.7c0-8.3-6.8-15.1-15.1-15.1s-15.1,6.8-15.1,15.1c0,6.6,4.2,12.2,10.1,14.2v9h-33.6V47.8v0
			c0-6.2-5-11.3-11.3-11.3c-6.2,0-11.3,5-11.3,11.3c0,4.9,3.2,9.1,7.6,10.6v5.5h-25.9c-7.8,0-14.2,6.3-14.2,14.2v28.1h-17.5
			c-9.3,0-16.8,7.5-16.8,16.8c0,9.3,7.5,16.8,16.8,16.8h17.5v41.1c0,7.8,6.3,14.2,14.2,14.2h45.1l41.3,41.3c6.5,6.5,17.2,6.5,23.7,0
			c6.5-6.5,6.5-17.2,0-23.7L253,194.9h8.4c7.8,0,14.2-6.3,14.2-14.2v-42.8l-33.2,33.2c-3.5,3.5-8.3,5.5-13.3,5.5
			c-5,0-9.7-2-13.3-5.5c-3.5-3.5-5.5-8.3-5.5-13.3c0-5,2-9.7,5.5-13.3l46.9-46.9C266.1,94.3,270.6,92.4,275.5,92.2L275.5,92.2z
			 M160.5,94.2c1-6.7,6.7-11.9,13.7-11.9c7,0,12.7,5.2,13.7,11.9H160.5z M196.2,129.8l-17.4-21.9c0,0,39.8,2.9,41,4.6L196.2,129.8z
			 M232.9,94.2h-33.2c0-0.3,0-0.5,0-0.8c0-9.2,7.4-16.6,16.6-16.6c9.2,0,16.6,7.4,16.6,16.6C233,93.7,232.9,93.9,232.9,94.2z"/>
		<path fill="none" stroke="#E9AB22" stroke-linecap="round" stroke-linejoin="round" stroke-miterlimit="10" d="M166.4,197.4
			l-15.1,15.1c-6.5,6.5-6.5,17.2,0,23.7c6.5,6.5,17.2,6.5,23.7,0l34.1-34.1l-4.7-4.7H166.4z"/>
		<path fill="none" stroke="#E9AB22" stroke-linecap="round" stroke-linejoin="round" stroke-miterlimit="10" d="M217.1,169.7
			c6.5,6.5,17.2,6.5,23.7,0l34.5-34.5V94.2c-4.1,0.1-8.2,1.7-11.4,4.9L217.1,146C210.6,152.5,210.6,163.1,217.1,169.7z"/>
	</g>
	<path fill="none" stroke="#00A79B" stroke-miterlimit="10" d="M253.8,172.9l-10-7l0,0l-0.7-0.5c0.2-0.9-0.1-1.9-0.9-2.5
		c-0.8-0.6-1.9-0.6-2.7-0.1l-3.9-2.7c0.1-0.9-0.2-1.8-1-2.4c-0.8-0.6-1.8-0.6-2.6-0.1l-1-0.7l0,0L120,78.9l-0.1,0l-0.1-0.1l0,0.1
		L99.6,80l0,0l0,0l1.6,7.4c0,0,0,0,0,0l2.9,13.5l-0.1,0.1l111.4,78.3l0,0l0.5,0.4c-0.3,1,0.1,2,0.9,2.6c0.9,0.6,2,0.6,2.8,0l3.8,2.6
		c-0.2,0.9,0.2,1.9,1,2.5c0.8,0.6,1.9,0.6,2.7,0.1l10.9,7.7c4.3,3,10.4,2,13.4-2.3l4.6-6.6C259.1,182,258.1,176,253.8,172.9z"/>
	<g>
		<path fill="none" stroke="#00A79B" stroke-linecap="round" stroke-linejoin="round" d="M107.7,85.8c0.3,0.5,4.4-3.1,4.6-2.7
			c0.1,0.2-2.8,11.7-2.6,11.9c0.4,0.7,10.5-6.8,10.8-6.2c0.1,0.2-4.2,12.5-4.1,12.8c0.4,0.6,11.8-7.8,12.2-7.1
			c0.2,0.3-4.1,12.6-3.9,12.9c0.3,0.6,11.8-7.7,12.2-7.1c0.2,0.3-4.1,12.6-4,12.9c0.3,0.6,11.9-7.6,12.2-7.1
			c0.2,0.3-4.1,12.6-3.9,12.9c0.4,0.7,11.9-7.6,12.2-7.1c0.2,0.3-4.5,12.3-4.3,12.6c0.3,0.6,11.9-7.6,12.2-7.1
			c0.2,0.3-3.9,12.7-3.7,13c0.3,0.6,11.8-7.7,12.2-7.1c0.2,0.3-4.3,12.4-4.2,12.7c0.3,0.5,11.8-7.8,12.2-7.1
			c0.1,0.2-4,12.7-3.8,12.9c0.4,0.6,11.8-7.8,12.2-7.1c0.2,0.3-3.9,12.7-3.7,13c0.4,0.6,11.9-7.7,12.2-7.1c0.1,0.2-4.1,12.6-4,12.8
			c0.3,0.6,11.9-7.7,12.2-7.1c0.2,0.3-4.6,12.2-4.4,12.6c0.4,0.8,11.8-7.7,12.2-7.1c0.2,0.3-4.6,12.2-4.4,12.5
			c0.3,0.6,11.9-7.6,12.2-7.1c0.1,0.2-4.5,12.3-4.4,12.6c0.5,0.8,12.8-8.1,13.1-7.5c0.2,0.3-5.7,13.3-5.6,13.6
			c0.4,0.6,12.9-8.3,13.3-7.7c0.2,0.4-5.7,13.4-5.5,13.7c0.4,0.7,12.9-8.2,13.2-7.6c0.2,0.3-4,12.6-3.8,12.9
			c0.3,0.6,10-6.5,10.3-5.9"/>
	</g>
	<path fill="#00A79B" d="M103.1,94.9c6.4-0.5,11.5-6.1,11.5-12.9c0-0.8-0.1-1.6-0.2-2.3L100,80.5L103.1,94.9z"/>
	<g>
		<path fill="none" stroke="#EFCC86" stroke-linecap="round" stroke-linejoin="round" d="M146.4,140c0,0,0.4-0.2,0.4-0.2
			c0.1,0.1-0.5,5.4-0.4,5.6c0.1,0.2,6.9-4.2,6.9-4c0.2,0.3-7.1,9.6-6.9,9.9c0.2,0.4,11.9-7.3,12.1-7c0.2,0.4-12.3,12.8-12.1,13.2
			c0.2,0.4,16.5-10,16.7-9.7c0.3,0.5-17,14.4-16.7,15c0.2,0.4,19.9-12.2,20.2-11.7c0.3,0.5-20.6,17.3-20.2,17.9
			c0.3,0.6,23.7-14.6,24.1-13.9c0.4,0.6-24.5,19.5-24.1,20.2c0.4,0.7,27.3-16.8,27.8-16c0.4,0.7-27.9,20.3-27.4,21.2
			c0.4,0.7,30.1-18.3,30.4-17.6c0.5,0.9-29.3,21.3-28.8,22.1c0.5,0.8,31.4-19.3,31.9-18.4c0.4,0.7-29.3,22-28.9,22.7
			c0.5,0.8,31.9-19.4,32.3-18.6c0.4,0.7-28.9,21-28.3,21.9c0.5,0.8,31-19,31.5-18.2c0.5,0.8-25.7,19.9-25.4,20.4
			c0.5,0.9,28.3-17.2,28.7-16.6c0.3,0.5-18.7,16.3-18.4,16.8c0.3,0.6,21.7-13.2,22-12.7c0.3,0.5-12.2,12.3-12,12.7
			c0.2,0.4,15.2-9.3,15.4-8.9c0.1,0.2-5.2,8.7-5.1,8.9c0.1,0.3,8.5-5.2,8.6-5c0.1,0.1,1.2,4.9,1.3,5c0,0.1,2.2-1.4,2.3-1.3"/>
	</g>
</g>
<path fill="none" stroke="#E9AB22" stroke-linecap="round" stroke-linejoin="round" stroke-miterlimit="10" d="M16.1,256.5
	c114.3,2.9,228.7,2.7,343-0.5c-103.3-1.1-206.6-2.2-310-3.3"/>
</svg>
